<svg xmlns="http://www.w3.org/2000/svg" width="86" height="96.935" viewBox="0 0 86 96.935"><g transform="translate(-8 -5.931)"><path d="M18.75,47.563a5.375,5.375,0,0,1-10.75,0V23.375a5.375,5.375,0,0,1,10.75,0Zm75.25,0a5.375,5.375,0,0,1-10.75,0V23.375a5.375,5.375,0,0,1,10.75,0ZM45.625,77.125a5.375,5.375,0,0,1-10.75,0V52.938a5.375,5.375,0,0,1,10.75,0Zm21.5,0a5.375,5.375,0,1,1-10.75,0V52.938a5.375,5.375,0,1,1,10.75,0Z" transform="translate(0 20.366)"/><path d="M14,34.875V75.188a5.391,5.391,0,0,0,5.375,5.375h43a5.391,5.391,0,0,0,5.375-5.375V34.875ZM40.875,8C24.75,8,14.806,17.675,14,29.5H67.75C66.944,17.675,57,8,40.875,8ZM30.125,23.05a2.539,2.539,0,0,1-2.687-2.687,2.539,2.539,0,0,1,2.688-2.687,2.539,2.539,0,0,1,2.688,2.688A2.693,2.693,0,0,1,30.125,23.05Zm21.5,0a2.539,2.539,0,0,1-2.687-2.687,2.688,2.688,0,0,1,5.375,0A2.693,2.693,0,0,1,51.625,23.05Z" transform="translate(10.125 3.491)"/><path d="M47.316,18.21a3.82,3.82,0,0,1-1.612-.537A2.643,2.643,0,0,1,44.9,13.91l4.569-6.719a2.721,2.721,0,1,1,4.569,2.956l-4.569,6.719A2.128,2.128,0,0,1,47.316,18.21ZM23.129,17.135a2.394,2.394,0,0,1-2.15-1.344l-3.494-5.644a2.721,2.721,0,1,1,4.569-2.956l3.494,5.644a2.643,2.643,0,0,1-.806,3.762A3.82,3.82,0,0,1,23.129,17.135Z" transform="translate(15.24 0)"/></g></svg>