<svg xmlns="http://www.w3.org/2000/svg" width="81.158" height="95.015" viewBox="0 0 81.158 95.015"><g transform="translate(-37.336)"><g transform="translate(76.341)"><path d="M266.907,0c-5.065.35-10.986,3.593-14.436,7.815-3.147,3.83-5.736,9.519-4.727,15.048,5.535.172,11.253-3.147,14.567-7.441C265.41,11.425,267.756,5.772,266.907,0Z" transform="translate(-247.522)"/></g><g transform="translate(37.336 22.239)"><g transform="translate(0)"><path d="M115.744,129.478c-4.864-6.1-11.7-9.638-18.154-9.638-8.522,0-12.126,4.08-18.047,4.08-6.1,0-10.743-4.068-18.112-4.068-7.239,0-14.947,4.424-19.834,11.99-6.871,10.654-5.695,30.684,5.44,47.745,3.985,6.1,9.305,12.969,16.265,13.029,6.194.059,7.94-3.973,16.331-4.014s9.982,4.068,16.164,4c6.966-.053,12.578-7.661,16.562-13.765a68.46,68.46,0,0,0,6.134-11.52C102.383,161.183,99.8,138.273,115.744,129.478Z" transform="translate(-37.336 -119.84)"/></g></g></g></svg>