<svg xmlns="http://www.w3.org/2000/svg" width="65.577" height="65.576" viewBox="0 0 65.577 65.576"><defs><style>.a{opacity:0.95;}.b{fill:#8a8282;}</style></defs><g class="a"><path class="b" d="M134.3,158.661a1.52,1.52,0,0,0-2.15,2.15l11.515,11.515H113.07a1.525,1.525,0,1,0,0,3.05H143.65l-11.515,11.515a1.519,1.519,0,0,0,0,2.151,1.5,1.5,0,0,0,1.083.442,1.562,1.562,0,0,0,1.082-.442l14.108-14.107a1.511,1.511,0,0,0,.443-1.083,1.573,1.573,0,0,0-.443-1.082Z" transform="translate(-100.106 -141.061)"/><path class="b" d="M50.792,17.929a32.791,32.791,0,1,0,23.183,9.608A32.785,32.785,0,0,0,50.792,17.929Zm0,62.531A29.74,29.74,0,1,1,80.532,50.72,29.779,29.779,0,0,1,50.792,80.461Z" transform="translate(-18 -17.929)"/></g></svg>