<svg xmlns="http://www.w3.org/2000/svg" width="77.176" height="77.307" viewBox="0 0 77.176 77.307"><defs><style>.a{fill:#00a542;}</style></defs><g transform="translate(-1427.713 -108.554)"><path class="a" d="M1504.888,156.418c-.212.057-.2.271-.274.416a3.008,3.008,0,0,1-5.75-1.274c-.014-3.045,0-6.089,0-9.133q0-9.813,0-19.625a12.046,12.046,0,0,0-9.7-11.969,11.729,11.729,0,0,0-2.467-.241q-20.378.005-40.755.006a12.039,12.039,0,0,0-12.17,12.2q-.016,20.418,0,40.836a12.043,12.043,0,0,0,12.189,12.184q14.162.02,28.325.005a3.027,3.027,0,0,1,1.277,5.832c-.123.056-.32-.006-.354.206h-31.495c-.079-.237-.291-.145-.446-.171-9.023-1.517-15.481-8.829-15.512-17.738q-.072-20.821,0-41.642a18.079,18.079,0,0,1,14.1-17.323,5.5,5.5,0,0,0,1.85-.433h44.906c.029.119.12.132.224.144a18.053,18.053,0,0,1,15.627,14.083,7.824,7.824,0,0,0,.424,1.929Z" transform="translate(0)"/><path class="a" d="M1651.34,345.2a2.689,2.689,0,0,0-1.1-.341,10.246,10.246,0,0,1-4.634-2.538c-3.891-3.857-7.8-7.7-11.6-11.647a21.723,21.723,0,0,1-5.57-11.643c-.428-2.422-.946-4.828-1.424-7.241a3.006,3.006,0,0,1,3.637-3.642c3.434.711,6.91,1.229,10.295,2.161a20.375,20.375,0,0,1,9,5.244c3.649,3.6,7.259,7.242,10.873,10.879a10.922,10.922,0,0,1,3.018,5.866c.024.133-.049.315.159.37v3.171c-.281.17-.209.485-.27.73a10.918,10.918,0,0,1-7.9,8.268,6.737,6.737,0,0,0-1.476.364Zm6.637-10.911a5.234,5.234,0,0,0-1.582-3.755c-3.2-3.2-6.5-6.3-9.558-9.631-3.432-3.74-7.821-5.167-12.594-5.9-.353-.054-.448.047-.375.388.158.736.32,1.473.444,2.215a15.789,15.789,0,0,0,3.581,8.323c3.824,4.2,7.907,8.153,12,12.088a4.428,4.428,0,0,0,5.207.659A4.84,4.84,0,0,0,1657.977,334.286Z" transform="translate(-159.11 -159.336)"/><path class="a" d="M1526.121,248q10.168,0,20.337,0a3.021,3.021,0,0,1,.382,6.029c-.15.011-.3.008-.452.008q-20.262,0-40.523,0a3.022,3.022,0,1,1-.156-6.034c4.57-.012,9.139,0,13.709,0Z" transform="translate(-59.813 -111.36)"/><path class="a" d="M1586.115,188.02c4.569,0,9.138-.007,13.707,0a3.016,3.016,0,0,1,1.461,5.659,3.089,3.089,0,0,1-1.514.378q-13.707,0-27.414-.005a3.019,3.019,0,1,1,.053-6.034Q1579.261,188.011,1586.115,188.02Z" transform="translate(-113.035 -63.461)"/><path class="a" d="M1511.051,314.019c-1.731,0-3.463.006-5.2,0a3.024,3.024,0,1,1,0-6.037q5.232-.008,10.465,0a3.024,3.024,0,1,1,0,6.037C1514.564,314.024,1512.807,314.019,1511.051,314.019Z" transform="translate(-59.849 -159.261)"/><path class="a" d="M1510.183,186.536a3.766,3.766,0,1,1-3.8-3.754A3.777,3.777,0,0,1,1510.183,186.536Z" transform="translate(-59.847 -59.279)"/></g></svg>