<svg xmlns="http://www.w3.org/2000/svg" width="120.64" height="98.435" viewBox="0 0 120.64 98.435"><defs><style>.a{fill:#fff;}</style></defs><g transform="translate(391.452 -99.137)"><path class="a" d="M-331.135,328.967H-389.04c-2.087,0-2.409-.326-2.409-2.437q0-7.689,0-15.377c.011-7.443,5.247-12.663,12.7-12.675,1.041,0,2.082-.009,3.123,0a1.361,1.361,0,0,0,1.573-1.284,1.478,1.478,0,0,1,1.444-1.488c.9-.038,1.317.6,1.572,1.386q.591,1.822,1.237,3.625a2.842,2.842,0,0,0,2.731,2.134,2.826,2.826,0,0,0,2.861-2.113c.48-1.268.918-2.553,1.377-3.83a1.449,1.449,0,0,1,1.606-1.145,1.352,1.352,0,0,1,1.273,1.351,1.418,1.418,0,0,0,1.632,1.368q2.521,0,5.042.083a1.5,1.5,0,0,0,.97-.38,13.056,13.056,0,0,1,7.872-2.46c1.241.006,2.483,0,3.724,0,1.1,0,1.846-.406,1.986-1.613a1.427,1.427,0,0,1,1.361-1.425c.939-.079,1.355.52,1.622,1.3.467,1.359.922,2.722,1.408,4.074a3.387,3.387,0,0,0,3.152,2.511,3.421,3.421,0,0,0,3.292-2.506c.53-1.421,1.026-2.854,1.541-4.28a1.407,1.407,0,0,1,1.536-1.072,1.355,1.355,0,0,1,1.306,1.335c.115,1.293.9,1.657,2.041,1.683a33.337,33.337,0,0,1,6.7.317,9.548,9.548,0,0,1,3.649,1.449,5.161,5.161,0,0,0,3.779,1c1.151-.107,2.321-.026,3.482-.021a1.351,1.351,0,0,0,1.549-1.307,1.455,1.455,0,0,1,1.347-1.449c.9-.093,1.365.47,1.624,1.283.364,1.141.765,2.27,1.16,3.4.582,1.667,1.481,2.428,2.874,2.446,1.424.019,2.312-.692,2.929-2.358.443-1.2.895-2.393,1.308-3.6a1.424,1.424,0,0,1,1.605-1.126,1.373,1.373,0,0,1,1.274,1.368c.122,1.086.8,1.338,1.755,1.353,2.153.033,4.316-.188,6.447.385a12.09,12.09,0,0,1,9.129,11.551c.065,5.566.024,11.132.016,16.7,0,1.395-.509,1.842-2.037,1.843q-17.9,0-35.8,0Zm-.027-2.887q11.412,0,22.823.012c.7,0,1.059-.061,1.052-.936-.047-5.485.025-10.972-.05-16.456a10.159,10.159,0,0,0-7.892-9.785,26.871,26.871,0,0,0-5.859-.29A5.557,5.557,0,0,1-324.1,298c-.5-.324-.688-.183-.81.333a7.016,7.016,0,0,1-.318.9,6.338,6.338,0,0,1-5.959,4.234,6.168,6.168,0,0,1-5.832-4.378c-.35-1.046-.663-1.584-1.774-.8a2.228,2.228,0,0,1-1.154.254c-1.4.048-2.8.064-4.2.071-6.411.032-10.792,4.371-10.816,10.756-.02,5.205.021,10.411-.028,15.616-.008.912.236,1.118,1.127,1.113C-346.3,326.064-338.73,326.08-331.162,326.08Zm24.349-24.654c2.329,3.134,2.462,6.613,2.409,10.165-.067,4.481-.006,8.964-.027,13.446,0,.693.046,1.069.934,1.065q14.466-.052,28.932-.007c.681,0,.869-.189.865-.866-.03-4.962.086-9.927-.058-14.885a8.876,8.876,0,0,0-5.736-8.272,10.276,10.276,0,0,0-4.1-.722c-1.512-.022-3.1.364-4.517-.244-1.114-.478-1.371-.189-1.737.833a5.57,5.57,0,0,1-5.41,3.809,5.711,5.711,0,0,1-5.411-3.826c-.117-.3-.216-.6-.336-.895-.085-.21-.128-.467-.48-.253C-303.073,301.733-304.848,301.218-306.813,301.426Zm-48.689.008c-1.61-.2-3.091.289-4.377-.33-1.137-.547-1.356-.092-1.718.842a5.681,5.681,0,0,1-7.3,3.49,5.947,5.947,0,0,1-3.715-3.957c-.086-.254.064-1.012-.646-.661-1.907.944-3.937.493-5.91.53a9.317,9.317,0,0,0-9.391,9.351c-.035,4.8.01,9.6-.025,14.4-.005.772.181,1,.981,1q14.344-.044,28.689,0c.826,0,1.082-.194,1.074-1.051-.043-4.641.041-9.284-.041-13.924C-357.937,307.714-357.638,304.431-355.5,301.434Z" transform="translate(0 -131.395)"/><path class="a" d="M-243.1,124.276c.353-2,.709-4.208,1.147-6.4a2.155,2.155,0,0,0-.7-2.312c-1.579-1.413-3.041-2.957-4.573-4.424a1.709,1.709,0,0,1-.655-1.8c.227-.785.9-.963,1.587-1.064,2.253-.33,4.5-.679,6.765-.946a1.391,1.391,0,0,0,1.24-.9c.931-1.942,1.919-3.857,2.86-5.794.359-.739.693-1.506,1.665-1.49s1.288.818,1.642,1.541c.947,1.935,1.914,3.862,2.829,5.812a1.3,1.3,0,0,0,1.143.845c2.258.3,4.508.666,6.761,1.006.686.1,1.361.228,1.623,1.009a1.713,1.713,0,0,1-.693,1.891c-1.561,1.495-3.073,3.043-4.665,4.5a1.824,1.824,0,0,0-.639,1.882c.394,2.081.737,4.171,1.1,6.258.133.765.249,1.531-.511,2.07-.712.505-1.353.186-2.009-.168-1.932-1.042-3.886-2.044-5.807-3.106a1.528,1.528,0,0,0-1.656-.016c-2.067,1.126-4.148,2.229-6.254,3.281C-242.153,126.57-243.163,125.867-243.1,124.276Zm15.184-2.159c-.3-1.829-.5-3.49-.866-5.111a2.416,2.416,0,0,1,.835-2.544c1.208-1.149,2.321-2.4,3.521-3.652-1.6-.232-3.212-.5-4.832-.687a2.536,2.536,0,0,1-2.281-1.624c-.666-1.538-1.462-3.019-2.265-4.651-.762,1.541-1.517,2.865-2.082,4.265a3.011,3.011,0,0,1-2.9,2.047c-1.481.106-2.947.406-4.416.62,1.277,1.334,2.437,2.6,3.662,3.8a2.238,2.238,0,0,1,.687,2.263c-.346,1.674-.6,3.367-.931,5.264,1.726-.9,3.285-1.681,4.811-2.523a2.143,2.143,0,0,1,2.259-.006C-231.182,120.42-229.625,121.217-227.918,122.117Z" transform="translate(-97.423 0)"/><path class="a" d="M-239.59,215.348a35.542,35.542,0,0,1,.2-5.094,11.6,11.6,0,0,1,12.114-9.419,11.507,11.507,0,0,1,10.753,11.3c.034,3.034.33,6.093-.2,9.1-1.044,5.96-6.335,9.856-12.569,9.357a11.508,11.508,0,0,1-10.294-11.234C-239.61,218.162-239.59,216.961-239.59,215.348Zm20.2.738c0-1.521.02-2.682,0-3.841a8.678,8.678,0,0,0-8.71-8.55,8.671,8.671,0,0,0-8.6,8.539c-.036,2.32-.033,4.641,0,6.96a8.609,8.609,0,0,0,7.57,8.515,8.612,8.612,0,0,0,9.56-6.84A29.4,29.4,0,0,0-219.389,216.086Z" transform="translate(-103.092 -69.019)"/><path class="a" d="M-353.712,143.634c.308-1.764.616-3.7,1-5.617a2.19,2.19,0,0,0-.721-2.417c-1.37-1.16-2.588-2.5-3.889-3.742a1.639,1.639,0,0,1-.569-1.824,1.628,1.628,0,0,1,1.525-.978c1.859-.259,3.715-.538,5.578-.758a1.7,1.7,0,0,0,1.543-1.067c.8-1.739,1.705-3.426,2.534-5.15a1.617,1.617,0,0,1,1.524-1.138,1.646,1.646,0,0,1,1.417,1.133c.855,1.757,1.749,3.5,2.563,5.271a1.493,1.493,0,0,0,1.35.959c1.864.224,3.721.508,5.577.789.719.109,1.424.256,1.684,1.11s-.259,1.351-.78,1.859c-1.318,1.284-2.6,2.6-3.972,3.832a1.706,1.706,0,0,0-.572,1.788c.347,1.885.635,3.781.975,5.668a1.569,1.569,0,0,1-.549,1.712,1.551,1.551,0,0,1-1.8-.048c-1.759-.94-3.535-1.847-5.283-2.807a1.287,1.287,0,0,0-1.418-.008c-1.781.981-3.587,1.918-5.406,2.827A1.478,1.478,0,0,1-353.712,143.634Zm8.451-17.988c-.7,1.406-1.329,2.6-1.884,3.837a2.3,2.3,0,0,1-2.088,1.5c-1.335.114-2.657.37-4.234.6,1.109,1.081,2.037,2.047,3.032,2.939a2.358,2.358,0,0,1,.809,2.554c-.31,1.286-.453,2.613-.7,4.131,1.429-.742,2.65-1.322,3.813-2a2.249,2.249,0,0,1,2.467,0c1.179.67,2.4,1.266,3.8,1.994-.249-1.562-.365-2.88-.688-4.145a2.309,2.309,0,0,1,.859-2.526c.98-.887,1.889-1.851,2.966-2.918-1.608-.243-2.978-.492-4.359-.643a2.064,2.064,0,0,1-1.815-1.322C-343.882,128.351-344.547,127.084-345.26,125.646Z" transform="translate(-22.718 -14.803)"/><path class="a" d="M-108.032,143.573c-.012,1.486-1.057,2.106-2.262,1.5q-2.614-1.325-5.171-2.761a1.669,1.669,0,0,0-1.858-.026c-1.664.942-3.391,1.775-5.08,2.674a1.564,1.564,0,0,1-1.892.014,1.614,1.614,0,0,1-.476-1.736c.356-1.842.636-3.7.988-5.542a1.793,1.793,0,0,0-.6-1.9c-1.369-1.226-2.636-2.565-3.963-3.84a1.713,1.713,0,0,1-.688-1.894c.262-.763.922-.928,1.618-1.024,1.86-.256,3.717-.538,5.581-.755a1.612,1.612,0,0,0,1.443-1.03c.8-1.736,1.694-3.431,2.527-5.153.317-.656.735-1.18,1.511-1.169s1.178.565,1.489,1.213c.81,1.69,1.66,3.361,2.448,5.061a1.673,1.673,0,0,0,1.511,1.11c1.826.187,3.642.487,5.458.767.71.109,1.44.223,1.7,1.082.256.836-.2,1.357-.741,1.874-1.269,1.22-2.481,2.5-3.806,3.656A2.134,2.134,0,0,0-109,138C-108.616,139.922-108.324,141.859-108.032,143.573Zm-.384-11.983c-1.361-.211-2.69-.488-4.032-.6a2.279,2.279,0,0,1-2.071-1.521c-.562-1.257-1.207-2.476-1.871-3.822-.669,1.349-1.311,2.544-1.859,3.781a2.364,2.364,0,0,1-2.18,1.557c-1.327.106-2.64.376-3.971.577,1.038,1.088,1.974,2.123,2.97,3.095a2.169,2.169,0,0,1,.7,2.25c-.31,1.343-.472,2.72-.732,4.293,1.335-.691,2.5-1.216,3.576-1.873a2.5,2.5,0,0,1,2.9-.019c1.1.674,2.28,1.205,3.609,1.893-.246-1.526-.374-2.841-.687-4.11a2.362,2.362,0,0,1,.826-2.545C-110.281,133.649-109.419,132.648-108.417,131.59Z" transform="translate(-178.092 -14.796)"/><path class="a" d="M-125.055,231.966a31.764,31.764,0,0,1,.191-4.624A10.663,10.663,0,0,1-113.8,218.7a10.49,10.49,0,0,1,9.893,9.394c.268,3.339.528,6.731-.259,10.032a10.541,10.541,0,0,1-11.355,7.921,10.686,10.686,0,0,1-9.532-10.323C-125.078,234.608-125.055,233.488-125.055,231.966Zm2.891-.016c0,1.577-.041,2.737.008,3.895a7.768,7.768,0,0,0,7.329,7.35,7.649,7.649,0,0,0,8.056-6.781,41.019,41.019,0,0,0,0-8.021,7.622,7.622,0,0,0-7.186-6.807,7.734,7.734,0,0,0-8.035,6.121A24.935,24.935,0,0,0-122.164,231.95Z" transform="translate(-180.848 -81.166)"/><path class="a" d="M-327.494,232.819a30.983,30.983,0,0,1-.175,4.445,10.637,10.637,0,0,1-10.97,8.756,10.479,10.479,0,0,1-10.015-9.533,31.874,31.874,0,0,1,.271-9.914,10.567,10.567,0,0,1,11.368-7.908,10.682,10.682,0,0,1,9.516,10.212C-327.464,230.037-327.494,231.2-327.494,232.819Zm-2.884-.066c0-1.49.03-2.61-.005-3.727a7.753,7.753,0,0,0-7.3-7.5,7.636,7.636,0,0,0-8.1,6.856,41.459,41.459,0,0,0,0,7.9,7.643,7.643,0,0,0,7.154,6.849,7.752,7.752,0,0,0,8.065-6.09A24.972,24.972,0,0,0-330.378,232.753Z" transform="translate(-28.884 -81.107)"/></g></svg>