<svg class='icons' xmlns="http://www.w3.org/2000/svg" width="72" height="75.388" viewBox="0 0 72 75.388">
<defs>
<style>
.a{fill: #00A542;}
</style></defs><g transform="translate(-1655.341 -264.807)"><path class="a" d="M1727.34,270.279v64.6c-.154.02-.151.16-.187.27-1.134,3.486-3.218,5.05-6.727,5.05h-58.275c-4.158,0-6.811-2.78-6.811-7.136q0-30.553,0-61.106c0-4.363,2.648-7.142,6.8-7.142H1703.9c5.67,0,11.341-.009,17.011,0a6.373,6.373,0,0,1,6.224,4.967C1727.182,269.947,1727.093,270.2,1727.34,270.279Zm-36,16.7q-15.534,0-31.07-.014c-.56,0-.734.1-.733.74q.03,22.72.016,45.44c0,1.769.807,2.612,2.5,2.613h58.554c1.722,0,2.51-.84,2.51-2.675q0-22.683.015-45.367c0-.619-.143-.753-.722-.752Q1706.88,287,1691.345,286.982Zm-.043-4.434q15.569,0,31.137.011c.518,0,.7-.091.7-.7-.033-3.374-.013-6.748-.017-10.121a2.2,2.2,0,0,0-2.4-2.493q-29.379,0-58.758,0c-1.581,0-2.4.877-2.4,2.562,0,3.325.021,6.649-.019,9.973-.008.671.173.783.766.782Q1675.8,282.532,1691.3,282.548Z" transform="translate(0 0)"/><path class="a" d="M1816.033,412.688a1.933,1.933,0,0,1-.2.839q-5.169,12.077-10.338,24.155a1.74,1.74,0,1,1-3.182-1.379q5.161-12.082,10.335-24.159a1.736,1.736,0,0,1,3.382.544Z" transform="translate(-117.732 -107.385)"/><path class="a" d="M1902.987,460.39a1.928,1.928,0,0,1,.787-1.442c2.146-1.71,4.278-3.438,6.433-5.137.374-.295.376-.436,0-.732-2.169-1.712-4.318-3.45-6.475-5.177a1.719,1.719,0,0,1-.7-1.785,1.739,1.739,0,0,1,2.818-.979c2.883,2.3,5.769,4.6,8.637,6.927a1.7,1.7,0,0,1,0,2.758q-4.3,3.485-8.638,6.926a1.664,1.664,0,0,1-1.949.192A1.709,1.709,0,0,1,1902.987,460.39Z" transform="translate(-196.648 -141.282)"/><path class="a" d="M1722.522,444.756a1.748,1.748,0,0,1,1.029,3.163c-1.728,1.4-3.466,2.781-5.2,4.17-.377.3-.752.606-1.13.907-.6.477-.6.475-.022.935q3.168,2.535,6.334,5.072a1.731,1.731,0,0,1,.707,1.785,1.739,1.739,0,0,1-2.811,1q-4.347-3.474-8.681-6.964a1.7,1.7,0,0,1,.023-2.719q4.305-3.48,8.636-6.928A1.8,1.8,0,0,1,1722.522,444.756Z" transform="translate(-47.941 -141.309)"/>
<path class="a" d="M1909.972,313.279c-1.681,0-3.361,0-5.042,0a1.749,1.749,0,1,1-.027-3.485q5.071-.006,10.142,0a1.749,1.749,0,1,1-.031,3.485C1913.333,313.282,1911.652,313.279,1909.972,313.279Z" transform="translate(-196.671 -38.008)"/><path class="a" d="M1702.747,313.287a1.744,1.744,0,1,1,1.713-1.756A1.76,1.76,0,0,1,1702.747,313.287Z" transform="translate(-38.563 -38.017)"/><path class="a" d="M1749.355,311.548a1.74,1.74,0,1,1-1.719-1.749A1.76,1.76,0,0,1,1749.355,311.548Z" transform="translate(-73.335 -38.016)"/><path class="a" d="M1794.249,311.565a1.74,1.74,0,1,1-1.7-1.767A1.76,1.76,0,0,1,1794.249,311.565Z" transform="translate(-109.698 -38.014)"/></g></svg>