<svg xmlns="http://www.w3.org/2000/svg" width="41.351" height="41.348" viewBox="0 0 41.351 41.348"><path d="M1614.158,3023.346h4.151V3013.7h2.475l.73-3.48h-3.205v-1.983c0-.82.166-1.144.959-1.144h2.246v-3.613h-2.874c-3.089,0-4.483,1.36-4.483,3.965v2.775H1612v3.524h2.159Z" transform="translate(-1596.081 -2992.737)"/><g transform="translate(0 0)"><path d="M1621.824,3037.5a20.674,20.674,0,1,1,20.674-20.674A20.7,20.7,0,0,1,1621.824,3037.5Zm0-38.965a18.291,18.291,0,1,0,18.288,18.291A18.31,18.31,0,0,0,1621.824,2998.54Z" transform="translate(-1601.148 -2996.156)"/></g></svg>