<svg xmlns="http://www.w3.org/2000/svg" width="41.349" height="41.346" viewBox="0 0 41.349 41.346"><path d="M1711.634,3077.986a20.673,20.673,0,1,1,20.675-20.671A20.7,20.7,0,0,1,1711.634,3077.986Zm0-38.96a18.288,18.288,0,1,0,18.288,18.289A18.308,18.308,0,0,0,1711.634,3039.026Z" transform="translate(-1690.96 -3036.641)"/><g transform="translate(11.291 11.289)"><circle cx="1.1" cy="1.1" r="1.1" transform="translate(13.252 3.351)"/><path d="M1706.578,3047.583a4.622,4.622,0,1,0,4.62,4.622A4.627,4.627,0,0,0,1706.578,3047.583Zm0,7.582a2.96,2.96,0,1,1,2.96-2.96A2.964,2.964,0,0,1,1706.578,3055.165Z" transform="translate(-1697.116 -3042.821)"/><path d="M1711.787,3063.1h-7.493a5.644,5.644,0,0,1-5.637-5.637v-7.493a5.644,5.644,0,0,1,5.637-5.637h7.493a5.644,5.644,0,0,1,5.637,5.637v7.493A5.644,5.644,0,0,1,1711.787,3063.1Zm-7.493-17a3.876,3.876,0,0,0-3.871,3.871v7.493a3.876,3.876,0,0,0,3.871,3.871h7.493a3.876,3.876,0,0,0,3.871-3.871v-7.493a3.876,3.876,0,0,0-3.871-3.871Z" transform="translate(-1698.657 -3044.337)"/></g></svg>