<svg xmlns="http://www.w3.org/2000/svg" width="70.654" height="90.968" viewBox="0 0 70.654 90.968"><path d="M49.437,3.606,6.02,47.022a2.065,2.065,0,0,0,0,2.923L17.569,61.494a2.065,2.065,0,0,0,2.923,0L75.458,6.529A2.067,2.067,0,0,0,74,3H50.9A2.066,2.066,0,0,0,49.437,3.606ZM75.458,47.878,39.705,83.631,26.695,70.62a2.065,2.065,0,0,1,0-2.923L49.437,44.955a2.066,2.066,0,0,1,1.462-.606H74A2.067,2.067,0,0,1,75.458,47.878Zm0,42.561L60.38,75.361l-20.675,8.27,9.732,9.732a2.066,2.066,0,0,0,1.462.606H74A2.067,2.067,0,0,0,75.458,90.439Z" transform="translate(-5.414 -3)"/></svg>