<svg xmlns="http://www.w3.org/2000/svg" width="86.079" height="104.54" viewBox="0 0 86.079 104.54">
  <g id="Group_1991" data-name="Group 1991" transform="translate(-1460.47 48.028)">
    <path id="Path_8548" data-name="Path 8548" d="M1474.574,59.512c-.042-.156-.174-.172-.3-.219a5.54,5.54,0,0,1-4.02-5.8q-.009-11.578,0-23.157c0-5.713-.018-11.426.02-17.138.005-.822-.228-1.036-1.02-1-1.525.062-3.054.036-4.581.014A3.914,3.914,0,0,1,1460.482,8c-.013-1.768-.022-3.537,0-5.3a3.906,3.906,0,0,1,4.065-4.026c1.6-.013,3.192-.051,4.784.019.792.035.933-.226.932-.965q-.036-18.362-.015-36.724c0-3.155,1.414-5.018,4.411-5.878.048-.014.077-.1.115-.147h8.966c.613.564,1.139,1.186.783,2.086-.365.922-1.173.988-2.034.978-2.138-.024-4.277-.02-6.416,0a2.526,2.526,0,0,0-2.772,2.786c-.02,1.734.023,3.47-.02,5.2-.016.631.164.8.793.791,2.274-.039,4.549-.016,6.823-.016q22.252,0,44.5.018c.747,0,.988-.153.952-.936-.069-1.527-.02-3.06-.02-4.591,0-2.381-.871-3.26-3.234-3.26q-16.142,0-32.283.006c-.86,0-1.641-.069-2.009-1.01s.22-1.509.842-2.053h35.051a12.371,12.371,0,0,1,1.368.489,5.456,5.456,0,0,1,3.312,5.185q.027,16.486.006,32.972c0,1.188-.583,1.864-1.549,1.849s-1.5-.694-1.5-1.9c0-7.554-.016-15.108.018-22.662,0-.815-.141-1.067-1.022-1.066q-25.521.047-51.042.007c-.758,0-1.017.136-1.014.973q.052,13.423,0,26.846c0,.895.271,1.022,1.072,1.018,7.641-.031,15.282-.02,22.923-.018a4.012,4.012,0,0,1,4.386,4.353q.011,2.4,0,4.8c-.01,2.77-1.589,4.385-4.348,4.39-7.641.013-15.282.022-22.923-.019-.909,0-1.113.228-1.109,1.121q.054,13.474,0,26.949c0,.819.153,1.079,1.034,1.077q25.521-.045,51.042,0c.8,0,1.024-.191,1-1-.061-2.006-.055-4.015,0-6.022.019-.734-.13-.964-.922-.958-5.2.042-10.392.023-15.588.021-2.885,0-4.479-1.588-4.483-4.465q-.007-5,0-10a3.975,3.975,0,0,1,4.289-4.339c5.264-.012,10.528-.017,15.792.013.691,0,.968-.131.908-.878a17.721,17.721,0,0,1,0-2.652c.052-.719-.183-.905-.9-.9-4.041.035-8.082.017-12.124.017-.238,0-.475.006-.713,0-1.138-.033-1.779-.581-1.777-1.515s.642-1.519,1.777-1.523c4.211-.015,8.423-.033,12.633.016.871.01,1.211-.168,1.1-1.091a12.312,12.312,0,0,1,0-2.345c.048-.633-.146-.792-.779-.787-4.177.031-8.354.017-12.531.014a3.93,3.93,0,0,1-1.012-.053,1.432,1.432,0,0,1-1.177-1.563A1.437,1.437,0,0,1,1512.192-.1a4.492,4.492,0,0,1,.712-.016h22.618c.136,0,.272-.005.407,0a1.531,1.531,0,0,1,1.615,1.477,1.516,1.516,0,0,1-1.631,1.569c-1.9.027-3.8.039-5.7-.009-.672-.017-.871.175-.829.84a25.478,25.478,0,0,1,0,2.755c-.023.513.16.624.637.618,1.868-.025,3.736-.018,5.6-.007,1.229.008,1.9.538,1.922,1.487.026.992-.656,1.546-1.945,1.553-1.732.009-3.466.059-5.195-.021-.892-.041-1.1.261-1.026,1.081a15.058,15.058,0,0,1,0,2.447c-.052.7.142.917.877.909,3.939-.039,7.879-.022,11.818-.017,2.93,0,4.464,1.53,4.469,4.446.005,3.369.011,6.737,0,10.106a3.95,3.95,0,0,1-4.255,4.258c-4.007.007-8.015.021-12.022-.016-.71-.007-.893.163-.889.884.032,6.091.018,12.181.018,18.272,0,4.209-.881,5.523-4.688,7h-25.677c-.21-.407-.692-.591-.816-1.088-.287-1.147.477-1.967,1.9-1.967q11.664,0,23.328,0a2.582,2.582,0,0,0,2.9-2.879c.01-2.688-.039-5.376.026-8.063.022-.917-.208-1.156-1.142-1.155q-25.416.047-50.832.023a4.227,4.227,0,0,1-.509,0c-.434-.053-.589.1-.586.562.022,3.028-.011,6.056.034,9.084a2.431,2.431,0,0,0,2.4,2.423c.3.021.611.011.916.011,5.161,0,10.323.007,15.484-.007a1.62,1.62,0,0,1,1.734.97,1.486,1.486,0,0,1-.609,1.874c-.063.045-.088.145-.13.219Zm51.359-41.881c-5.4,0-10.794.013-16.191-.012-.966,0-1.341.376-1.334,1.329.024,3.333,0,6.666.011,10,0,1.121.254,1.371,1.383,1.371q16.191,0,32.382.013c.969,0,1.325-.388,1.316-1.341-.029-3.3-.009-6.6-.012-9.9,0-1.325-.138-1.46-1.466-1.46Q1533.979,17.629,1525.934,17.631ZM1481.07,9.145q8.042,0,16.084,0c1.249,0,1.445-.193,1.451-1.4.007-1.6-.008-3.2.005-4.794.008-.845-.356-1.236-1.224-1.235q-16.339.015-32.677,0c-.888,0-1.2.417-1.183,1.257.026,1.529.005,3.06.007,4.59,0,1.471.108,1.582,1.554,1.582Q1473.079,9.148,1481.07,9.145Z" transform="translate(0 -3)" fill="#00a542"/>
    <path id="Path_8549" data-name="Path 8549" d="M1550.938,48.973q-7.944,0-15.888,0c-3.144,0-4.664-1.54-4.666-4.709,0-3.231-.006-6.463,0-9.694.007-2.812,1.623-4.447,4.419-4.448q16.193-.01,32.386,0a4,4,0,0,1,4.382,4.356c.016,3.265.006,6.53,0,9.8,0,3.192-1.489,4.7-4.65,4.7Q1558.932,48.978,1550.938,48.973Zm3.944-9.416c4.465,1.8,8.785,3.541,13.1,5.3.411.167.55.1.549-.34q-.008-4.945,0-9.89c0-.565-.241-.5-.629-.333-.712.313-1.441.588-2.162.879Zm-8.163,0c-4.357-1.756-8.492-3.413-12.617-5.1-.6-.244-.676-.041-.673.5q.024,4.634,0,9.267c0,.526.119.66.636.449C1538.222,42.979,1542.386,41.3,1546.719,39.555Zm15.2,6.32c-.034-.1-.038-.2-.076-.216q-5.307-2.15-10.616-4.293a1.3,1.3,0,0,0-1.064.089c-3,1.224-6.015,2.426-9.016,3.654a4.618,4.618,0,0,0-1.6.766Zm-22.308-12.662-.034.162q5.449,2.2,10.9,4.414c.408.166.729-.042,1.064-.177q3.531-1.415,7.056-2.85c1.133-.459,2.264-.925,3.4-1.388l-.056-.161Z" transform="translate(-50.873 -54.68)" fill="#00a542"/>
    <path id="Path_8550" data-name="Path 8550" d="M1565.2,191.761c-1.56,0-3.121.043-4.679-.013a1.532,1.532,0,0,1-1.458-2.256,1.505,1.505,0,0,1,1.432-.795c3.187,0,6.375-.011,9.562.011a1.484,1.484,0,0,1,1.587,1.493,1.511,1.511,0,0,1-1.562,1.542c-1.626.05-3.255.014-4.882.014Z" transform="translate(-71.602 -170.075)" fill="#00a542"/>
    <path id="Path_8551" data-name="Path 8551" d="M1565.253,218.262c-1.526,0-3.052.008-4.578,0-1.1-.008-1.787-.6-1.786-1.512a1.59,1.59,0,0,1,1.788-1.537q4.629-.022,9.258,0a1.535,1.535,0,1,1,0,3.046C1568.373,218.272,1566.813,218.262,1565.253,218.262Z" transform="translate(-71.616 -189.36)" fill="#00a542"/>
  </g>
</svg>
