<svg xmlns="http://www.w3.org/2000/svg" width="118" height="114" viewBox="0 0 118 114"><defs><style>.a{fill:#086060;}.b{fill:#f1efef;}</style></defs><g transform="translate(-182 -6581)"><ellipse class="a" cx="59" cy="57" rx="59" ry="57" transform="translate(182 6581)"/><g transform="translate(-1159.168 6537.939)"><path class="b" d="M1428.167,98.311a11.912,11.912,0,0,0-.4,2.1,23.918,23.918,0,0,1-1.855,5.476,2.139,2.139,0,1,1-3.868-1.8,18.975,18.975,0,0,0,1.673-5.361,16.872,16.872,0,0,0-1.82-10.471c-2.962-5.609-7.7-9.034-13.669-10.849a25.463,25.463,0,0,0-11.019-.805,24.037,24.037,0,0,0-10.719,4.13,19.239,19.239,0,0,0-8.427,12.7,17.29,17.29,0,0,0,2.707,12.709,20.007,20.007,0,0,0,1.671,2.208,2.373,2.373,0,0,1,.392,2.714c-1.054,2.44-2.072,4.895-3.109,7.354.177.1.3-.041.429-.094,2.957-1.241,5.916-2.479,8.862-3.746a2.853,2.853,0,0,1,2.311-.054,25.83,25.83,0,0,0,10.533,1.77,2.163,2.163,0,0,1,2.276,1.406,2.122,2.122,0,0,1-.647,2.362,2.329,2.329,0,0,1-1.482.5,30.271,30.271,0,0,1-8.869-.959,15.536,15.536,0,0,1-2.033-.619,2.013,2.013,0,0,0-1.7.06c-4.218,1.809-8.448,3.588-12.677,5.371a2.12,2.12,0,0,1-2.849-.752,2.244,2.244,0,0,1-.057-2.234c1.419-3.344,2.8-6.7,4.256-10.032a1.747,1.747,0,0,0-.229-2.022,21.268,21.268,0,0,1-4.269-14.184,22.379,22.379,0,0,1,7.251-15.311,27.863,27.863,0,0,1,16.688-7.615,29.191,29.191,0,0,1,17.269,3.225,24.767,24.767,0,0,1,12.048,13.393,20.868,20.868,0,0,1,1.233,5.433c.009.1-.039.22.1.266Z" transform="translate(0)"/><path class="b" d="M1607.593,314.8c-.057-.183-.239-.138-.357-.165a6.646,6.646,0,0,1-3.276-1.88q-5.637-5.635-11.286-11.258a3.512,3.512,0,0,1-.907-1.534c-.773-2.6-1.576-5.186-2.358-7.781a2.152,2.152,0,0,1,1.74-2.975,2.8,2.8,0,0,1,1.1.143q4,1.1,7.993,2.205a3.291,3.291,0,0,1,1.491.877q5.576,5.583,11.17,11.148a6.721,6.721,0,0,1,2.061,3.754c.006.038.064.067.1.1v2.028c-.193.1-.152.3-.194.459a6.349,6.349,0,0,1-4.422,4.622,3.575,3.575,0,0,0-.933.255Zm-13.045-20.384c.424,1.408.822,2.743,1.235,4.074a.938.938,0,0,0,.26.33q3.7,3.7,7.393,7.4c.244.246.359.2.57-.02q1.208-1.243,2.452-2.451c.228-.22.245-.337.008-.572q-3.7-3.659-7.372-7.341a.867.867,0,0,0-.39-.261C1597.342,295.2,1595.984,294.814,1594.548,294.413Zm16.243,13.978a2.429,2.429,0,0,0-.866-1.762c-.138-.134-.217-.106-.337.015q-1.332,1.343-2.675,2.676c-.118.117-.145.188-.023.338a2.293,2.293,0,0,0,2.495.742A2.173,2.173,0,0,0,1610.792,308.391Z" transform="translate(-186.895 -188.099)"/><path class="b" d="M1493.5,235.405a2.132,2.132,0,1,1-2.144-2.121A2.143,2.143,0,0,1,1493.5,235.405Z" transform="translate(-100.227 -139.668)"/><path class="b" d="M1565.327,235.44a2.132,2.132,0,1,1-2.108-2.156A2.143,2.143,0,0,1,1565.327,235.44Z" transform="translate(-162.453 -139.667)"/><path class="b" d="M1635.008,233.284a2.132,2.132,0,1,1-2.112,2.152A2.143,2.143,0,0,1,1635.008,233.284Z" transform="translate(-224.681 -139.667)"/></g></g></svg>