<svg xmlns="http://www.w3.org/2000/svg" width="91" height="88" viewBox="0 0 91 88">
  <g id="Group_2036" data-name="Group 2036" transform="translate(-388 -10129)">
    <ellipse id="Ellipse_15" data-name="Ellipse 15" cx="45.5" cy="44" rx="45.5" ry="44" transform="translate(388 10129)" fill="#086060"/>
    <path id="Path_8652" data-name="Path 8652" d="M31.01,4a21.01,21.01,0,0,0-.539,42.013v7.328l1.406-.448c.19-.061,19.038-6.32,20.141-27.828a19.324,19.324,0,0,0-5.431-14.39A21.576,21.576,0,0,0,31.01,4Zm0,2.155a19.411,19.411,0,0,1,14.015,6,17.183,17.183,0,0,1,4.842,12.794A28.406,28.406,0,0,1,32.626,50.3v-6.49l-1.109.031c-.093,0-.184.009-.275.015-.076.005-.154.012-.232.012a18.855,18.855,0,0,1,0-37.71ZM18.619,19.084v9.7h4.31v5.387h1.077a5.393,5.393,0,0,0,5.387-5.387v-9.7Zm14.007,0v9.7h4.31v5.387h1.077A5.393,5.393,0,0,0,43.4,28.781v-9.7ZM20.774,21.239h6.465v7.542a3.237,3.237,0,0,1-2.155,3.047v-5.2h-4.31Zm14.007,0h6.465v7.542a3.237,3.237,0,0,1-2.155,3.047v-5.2h-4.31Z" transform="translate(402 10144)" fill="#fff"/>
  </g>
</svg>
