<svg xmlns="http://www.w3.org/2000/svg" width="113.719" height="106.867" viewBox="0 0 113.719 106.867"><defs><style>.a{fill:#fff;}</style></defs><g transform="translate(442.676 -103.388)"><path class="a" d="M-442.676,268.5a2.228,2.228,0,0,1,2.2-1.14c1.811.066,3.629-.035,5.439.04.963.04,1.284-.17,1.278-1.228-.05-8.566-.028-17.133-.028-25.7q0-16.577,0-33.153c0-4.856,2.881-7.759,7.712-7.764q9.937-.009,19.874,0a3.561,3.561,0,0,1,1.317.129,1.55,1.55,0,0,1,1.1,1.722,1.5,1.5,0,0,1-1.405,1.462,7.155,7.155,0,0,1-1,.025q-9.937,0-19.875,0c-3.01,0-4.39,1.4-4.39,4.439q0,29.426-.022,58.852c0,.942.163,1.291,1.183,1.218,1.47-.1,2.952-.027,4.533-.027a14.346,14.346,0,0,1,.272-5.193,14.114,14.114,0,0,1,16.016-10.66,1.034,1.034,0,0,0,1.255-.526,10.324,10.324,0,0,1,11.918-4.578c.45.12.708.249.868-.46a8.69,8.69,0,0,1,8.791-7.11,8.743,8.743,0,0,1,8.5,7.472,1.954,1.954,0,0,0,.1.269,11.071,11.071,0,0,1,5.546-.454,10.2,10.2,0,0,1,7.018,4.8,1.091,1.091,0,0,0,1.333.582,14.124,14.124,0,0,1,16.315,15c-.064.692.01.9.735.871,1.4-.056,2.813-.038,4.218-.005.53.012.754-.147.681-.685a4.123,4.123,0,0,1,0-.556q0-29.37,0-58.741c0-3.158-1.362-4.512-4.541-4.512h-19.653a7.246,7.246,0,0,1-1.108-.029,1.491,1.491,0,0,1-1.36-1.386,1.556,1.556,0,0,1,1.023-1.769,3.511,3.511,0,0,1,1.423-.153q9.882,0,19.764,0c4.913,0,7.784,2.884,7.785,7.805q0,29.426-.026,58.852c0,.994.245,1.233,1.206,1.19,1.884-.083,3.774-.03,5.661-.023,1.453.006,2.033.57,2.049,1.993.012,1.075.019,2.151,0,3.226a5.241,5.241,0,0,1-5.222,5.242c-.407.011-.814.005-1.221.005q-50.353,0-100.705.028c-2.961,0-5.218-.807-6.373-3.721-.019-.047-.121-.061-.184-.091Zm56.857,6.008h50.966a3.045,3.045,0,0,0,1.517-.228,2.63,2.63,0,0,0,1.008-3.153c-.246-.885-1.13-.381-1.683-.382q-37.863-.046-75.727-.028a5.937,5.937,0,0,1-1.327-.054,1.571,1.571,0,0,1-1.332-1.676,1.562,1.562,0,0,1,1.533-1.6c.33-.033.666-.01,1-.01h58.072c1.659,0,1.659,0,1.7-1.681,0-.111,0-.222,0-.334A10.8,10.8,0,0,0-363.852,255.1c-1.641.467-2.219.224-2.83-1.187-2-4.622-6.983-5.984-11.106-3.02a1.758,1.758,0,0,1-2.145.251,1.754,1.754,0,0,1-.657-2.148,5.326,5.326,0,0,0-2.147-5.858,5.471,5.471,0,0,0-6.151-.009,5.3,5.3,0,0,0-2.173,5.845,1.768,1.768,0,0,1-.633,2.158,1.8,1.8,0,0,1-2.233-.294,7.084,7.084,0,0,0-11.028,3.053c-.6,1.4-1.2,1.7-2.707,1.238a10.754,10.754,0,0,0-5.479-.195,10.907,10.907,0,0,0-8.393,11.3c.07.8.24,1.3,1.219,1.168a14.8,14.8,0,0,1,2.329-.015,1.621,1.621,0,0,1,1.759,1.6,1.659,1.659,0,0,1-1.755,1.731c-.665.032-1.332.008-2,.008-6.144,0-12.288-.005-18.432.016-.314,0-.814-.333-.942.386-.409,2.293.471,3.387,2.793,3.387Z" transform="translate(0 -67.622)"/><path class="a" d="M-305.763,167.429c-2.183,0-4.367.011-6.55,0-1.841-.012-2.494-.843-2.069-2.614a26.523,26.523,0,0,1,.914-3.541,3.634,3.634,0,0,0-.573-3.7c-.366-.526-.586-.565-1.108-.265-3.426,1.968-6.867,3.909-10.309,5.849a5.532,5.532,0,0,1-1.3.6,1.589,1.589,0,0,1-2.028-1.6c-.056-1.926-.056-3.857.032-5.782a7.139,7.139,0,0,1,1.9-4.285c2.338-2.776,4.633-5.588,6.979-8.356a1.974,1.974,0,0,0,.5-1.7c-1.876-14.512,2-27.179,12.15-37.816,1.046-1.1,1.877-1.088,2.933-.007a43.529,43.529,0,0,1,12.323,25.855,43.008,43.008,0,0,1-.213,12.186,1.6,1.6,0,0,0,.461,1.394c2.289,2.72,4.521,5.489,6.846,8.178a8.335,8.335,0,0,1,2.172,5.993c-.046,1.222,0,2.447-.009,3.671-.009,2.191-1.175,2.89-3.057,1.828-3.506-1.978-7.017-3.947-10.5-5.957-.611-.352-.854-.3-1.27.31a3.63,3.63,0,0,0-.51,3.611,27.674,27.674,0,0,1,.95,3.761c.338,1.54-.3,2.366-1.886,2.388C-301.248,167.452-303.506,167.429-305.763,167.429Zm-.04-46.419c-2.44,0-4.881.024-7.321-.016a1.007,1.007,0,0,0-1.168.83,43.121,43.121,0,0,0-1.975,8.856,41.388,41.388,0,0,0,5.239,25.531,1.3,1.3,0,0,0,1.315.746c2.588-.036,5.177-.049,7.765.006a1.507,1.507,0,0,0,1.549-.921,41.613,41.613,0,0,0,3.177-34.19,1.062,1.062,0,0,0-1.258-.857C-300.922,121.033-303.363,121.009-305.8,121.009Zm6.678-3.386c.135-.337-.085-.537-.192-.757a42.452,42.452,0,0,0-5.759-8.663c-.609-.723-.892-.535-1.4.054a40.834,40.834,0,0,0-5.71,8.562c-.12.244-.391.476-.207.8Zm-19.235,29.493c-1.915,2.3-3.626,4.518-5.52,6.567a6.351,6.351,0,0,0-1.515,5.594c3.054-1.727,6.022-3.425,9.013-5.08.59-.326.286-.664.14-1A44.686,44.686,0,0,1-318.36,147.117Zm25.2-.028a40.133,40.133,0,0,1-2.193,6.268c-.241.533-.029.694.373.917,1.964,1.091,3.914,2.207,5.872,3.31.982.553,1.968,1.1,3,1.674.182-2.432.094-3.479-.643-4.395C-288.813,152.308-290.925,149.8-293.165,147.089Zm-12.489,17c1.368,0,2.736-.024,4.1.011.616.016.792-.169.615-.769a23.59,23.59,0,0,1-.594-2.363c-.1-.553-.36-.714-.9-.7-1.478.033-2.957.011-4.436.011-2.99,0-2.99,0-3.676,2.944a1.043,1.043,0,0,1-.034.106c-.21.577-.029.79.6.774C-308.538,164.067-307.1,164.091-305.654,164.091Z" transform="translate(-80.059)"/><path class="a" d="M-267.741,195.6a6.992,6.992,0,0,1-6.986-6.987,7.062,7.062,0,0,1,6.967-7.044,7.06,7.06,0,0,1,7.041,7.079A6.987,6.987,0,0,1-267.741,195.6Zm0-3.34a3.647,3.647,0,0,0,3.688-3.644,3.715,3.715,0,0,0-3.655-3.708,3.713,3.713,0,0,0-3.687,3.675A3.646,3.646,0,0,0-267.74,192.264Z" transform="translate(-118.099 -54.978)"/></g></svg>