<svg xmlns="http://www.w3.org/2000/svg" width="83.333" height="104.489" viewBox="0 0 83.333 104.489"><defs><style>.a{fill:#00a542;}</style></defs><g transform="translate(-1879.107 -16.157)"><path class="a" d="M1951.378,16.157a3.5,3.5,0,0,1,2.462,3.817c-.075,3.025,0,6.053-.035,9.08-.007.613.121.824.774.793,1.255-.058,2.516-.033,3.774-.013a3.058,3.058,0,1,1,0,6.113c-1.938.022-3.877.016-5.815,0a2.109,2.109,0,0,0-1.317.4q-6.377,4.481-12.789,8.913a1.4,1.4,0,0,0-.686,1.328c.031,2.89.022,5.781.011,8.672-.008,2.218-1.17,3.4-3.391,3.413q-5.662.028-11.325,0a3.09,3.09,0,0,1-3.4-3.424c-.016-2.891-.024-5.782.011-8.672a1.487,1.487,0,0,0-.719-1.419q-6.334-4.364-12.623-8.794a2.139,2.139,0,0,0-1.311-.415c-6.292.014-12.583.023-18.874-.009-.73,0-.876.2-.876.9q.029,38.413,0,76.826c0,.721.178.9.89.884q4.029-.069,8.059,0c.687.011.842-.2.834-.854-.035-2.822-.021-5.645-.012-8.468a3.067,3.067,0,0,1,3.393-3.412c1.326-.017,2.657-.067,3.978.018.953.061,1.249-.168,1.244-1.194-.043-11.087-.027-22.174-.027-33.261,0-2.756,1.073-3.84,3.8-3.84h42.646c2.659,0,3.781,1.118,3.781,3.769q0,16.732-.02,33.465c0,.84.181,1.11,1.049,1.061,1.424-.08,2.856-.043,4.284-.016a3.037,3.037,0,0,1,3.267,3.334c.009,3.809-.065,7.62.031,11.426.048,1.9-.5,3.287-2.284,4.077H1881.38c-1.755-.809-2.276-2.192-2.273-4.087q.059-48.157,0-96.315c0-1.895.517-3.279,2.273-4.087h1.633a3.838,3.838,0,0,1,2.273,4.086c-.107,2.954-.013,5.915-.042,8.873-.006.579.157.729.73.727q8.415-.032,16.83,0c.657,0,.78-.209.773-.813-.03-2.856.067-5.715-.042-8.567-.073-1.892.368-3.391,2.13-4.31Zm-22.655,53.494c-6.019,0-12.037.013-18.056-.017-.738,0-.968.143-.966.933q.045,15.149,0,30.3c0,.761.179.959.951.957q18.056-.04,36.112,0c.75,0,.961-.162.958-.942q-.044-15.149,0-30.3c0-.759-.175-.953-.944-.949C1940.76,69.667,1934.742,69.651,1928.723,69.651Zm0,44.872c8.877,0,17.754-.01,26.631.018.744,0,.987-.145.95-.93-.071-1.561-.061-3.13,0-4.692.028-.764-.141-1.02-.975-1.015-6.428.04-12.856.022-19.284.022q-16.989,0-33.978-.018c-.75,0-.989.158-.955.939.068,1.562.063,3.13,0,4.692-.03.778.163,1.008.981,1C1910.972,114.51,1919.849,114.523,1928.726,114.523Zm-.019-84.693c6.052,0,12.1-.009,18.156.014.641,0,.87-.127.851-.821-.052-1.971-.046-3.944,0-5.915.014-.656-.152-.844-.829-.843q-18.207.033-36.414,0c-.606,0-.816.116-.8.77.048,1.937.056,3.877,0,5.813-.024.784.175,1.006.985,1C1916.671,29.813,1922.689,29.83,1928.707,29.83Zm-12.281,6.136c2.691,1.876,5.146,3.617,7.634,5.308a3.574,3.574,0,0,1,1.7,3.253c-.044,2.412.009,4.826-.026,7.238-.009.632.176.82.8.8q2.19-.066,4.383,0c.6.017.728-.2.721-.751-.027-2.379.016-4.758-.022-7.136a3.65,3.65,0,0,1,1.727-3.346c2.338-1.57,4.633-3.2,6.935-4.827.186-.131.526-.168.5-.539Z"/><path class="a" d="M2066.693,314.58c1.426,0,2.853-.019,4.279,0a3.055,3.055,0,1,1,.095,6.1q-4.43.078-8.863,0a3.055,3.055,0,1,1,.109-6.1C2063.772,314.562,2065.233,314.58,2066.693,314.58Z" transform="translate(-143.226 -237.494)"/><path class="a" d="M2066.739,374.894c1.461,0,2.922-.023,4.383.006a3.052,3.052,0,1,1,.011,6.1q-4.484.053-8.969,0a3.052,3.052,0,1,1-.011-6.1C2063.68,374.87,2065.21,374.894,2066.739,374.894Z" transform="translate(-143.23 -285.493)"/></g></svg>