<svg xmlns="http://www.w3.org/2000/svg" width="76" height="76.089" viewBox="0 0 76 76.089"><defs><style>.a{fill:#00a542;}</style></defs><g transform="translate(-1536.977 -95.608)"><path class="a" d="M1537.363,301.992c0-3.07.006-6.14,0-9.21a11.534,11.534,0,0,1,6.67-11.08c.066-.034.125-.078.237-.15a8.808,8.808,0,0,1-1.894-7.482,8.486,8.486,0,0,1,3.154-5.127,8.715,8.715,0,0,1,11.394.456,8.866,8.866,0,0,1,.734,12.179,12.669,12.669,0,0,1,3.659,2.588c.159.168.292.223.5.077a22.2,22.2,0,0,1,4.94-2.456A13.317,13.317,0,0,1,1562,270.566a13,13,0,0,1,4.235-8.878,13.385,13.385,0,0,1,18.324.136,13.524,13.524,0,0,1-.641,19.981,21.559,21.559,0,0,1,4.892,2.435.332.332,0,0,0,.5-.069,12.612,12.612,0,0,1,3.665-2.587,8.881,8.881,0,0,1,1.053-12.477,8.785,8.785,0,0,1,11.466.161,8.888,8.888,0,0,1,.88,12.293c.295.164.584.323.871.485a11.388,11.388,0,0,1,5.864,8.291c.024.131-.049.31.157.363,0,3.566-.013,7.132.015,10.7,0,.509-.1.609-.608.608q-35.026-.024-70.051-.014Zm37.929-4.458c5.408,0,10.817-.019,16.225.022.762.006.762-.266.652-.836a12.725,12.725,0,0,0-6.7-9.287,20.805,20.805,0,0,0-20.144-.1,12.634,12.634,0,0,0-6.831,9.268c-.182.934-.193.932.717.932Zm-8.876-26.143a8.9,8.9,0,1,0,9-8.811A8.951,8.951,0,0,0,1566.416,271.392Zm36.4,26.143c1.826,0,3.652,0,5.478,0,.314,0,.547.026.538-.444-.036-1.755.044-3.515-.042-5.267a6.749,6.749,0,0,0-3.064-5.475,9.944,9.944,0,0,0-5.06-1.673,10.472,10.472,0,0,0-7.814,2.265c-.349.3-.4.478-.073.869a17.146,17.146,0,0,1,3.887,9.126c.054.458.187.617.672.608C1599.168,297.515,1600.994,297.535,1602.82,297.535Zm-55,0c1.826,0,3.652-.021,5.478.014.5.01.611-.173.664-.618a17.3,17.3,0,0,1,3.47-8.608c.829-1.085.839-1.093-.3-1.886a7.854,7.854,0,0,0-1.339-.777,11.549,11.549,0,0,0-9.742.04,6.71,6.71,0,0,0-4.182,5.84c-.143,1.869-.035,3.757-.064,5.636-.007.471.294.356.54.357Q1545.082,297.539,1547.822,297.535Zm3.148-17.373a4.323,4.323,0,1,0-4.334-4.313A4.34,4.34,0,0,0,1550.97,280.161Zm48.724,0a4.324,4.324,0,1,0-4.35-4.307A4.313,4.313,0,0,0,1599.694,280.161Z" transform="translate(-0.309 -130.309)"/><path class="a" d="M1667.975,95.608a8.01,8.01,0,0,0,.807,1.807c.976,2.02,1.985,4.024,2.966,6.042a.944.944,0,0,0,.8.628c2.811.378,5.616.8,8.426,1.194.342.048.519.169.57.532.09.635.213,1.267.355,1.893a.814.814,0,0,1-.335.828c-1.863,1.808-3.7,3.638-5.585,5.425a1.327,1.327,0,0,0-.436,1.352c.476,2.651.906,5.31,1.387,7.961a.8.8,0,0,1-.358.9,2.891,2.891,0,0,1-3.917.153c-1.8-1.15-3.776-2.023-5.661-3.041a.932.932,0,0,0-1.007.007c-2.367,1.267-4.752,2.5-7.119,3.769a.763.763,0,0,1-.989-.024.925.925,0,0,0-.125-.078c-.582-.368-1.463-.619-1.666-1.137-.233-.6.119-1.43.242-2.156.362-2.144.717-4.29,1.119-6.427a1.254,1.254,0,0,0-.451-1.277c-1.875-1.795-3.716-3.625-5.586-5.424a.926.926,0,0,1-.307-.977c.161-.7.088-1.566.488-2.057s1.33-.317,2.028-.423q3.4-.515,6.809-1a.826.826,0,0,0,.74-.489c1.25-2.573,2.524-5.135,3.785-7.7a1.066,1.066,0,0,0,.052-.281Zm3.643,23.077c-.3-1.8-.552-3.484-.879-5.151a.966.966,0,0,1,.356-1.016c1.074-1.021,2.131-2.06,3.184-3.1.142-.141.393-.232.35-.54-1.678-.247-3.353-.514-5.035-.727a.915.915,0,0,1-.8-.609c-.729-1.525-1.488-3.035-2.3-4.684-.734,1.488-1.467,2.821-2.052,4.216a1.78,1.78,0,0,1-1.7,1.185c-1.478.153-2.945.417-4.429.636a21.3,21.3,0,0,0,2.471,2.512,3.079,3.079,0,0,1,1.181,3.808,29.058,29.058,0,0,0-.593,3.478c1.579-.829,3.028-1.559,4.443-2.351a1.2,1.2,0,0,1,1.343-.015C1668.591,117.123,1670.055,117.863,1671.618,118.685Z" transform="translate(-91.484)"/><path class="a" d="M1830.333,181.567c-1.715,1.021-3.3,2.241-4.964,3.336-.268.177-.2.425-.2.66-.006,1.832-.022,3.664,0,5.5.006.446-.19.582-.542.8a2.755,2.755,0,0,1-3.823-.534,32.766,32.766,0,0,0-2.852-2.241.809.809,0,0,0-.872-.142c-1.632.552-3.281,1.057-4.914,1.605a.873.873,0,0,1-1.053-.191c-.513-.527-1.376-.911-1.551-1.513-.162-.561.376-1.328.613-2,.418-1.186.815-2.381,1.275-3.55a1.032,1.032,0,0,0-.177-1.131c-.99-1.327-1.938-2.684-2.924-4.014a.937.937,0,0,1-.173-1.069c.295-.647.333-1.553.811-1.936.521-.418,1.423-.1,2.157-.091,1.308.015,2.617.059,3.924.126a.865.865,0,0,0,.85-.419c1.029-1.451,2.1-2.874,3.121-4.329a.971.971,0,0,1,.975-.411c1.747,0,2.516.9,2.789,2.556.19,1.159.67,2.269.972,3.413a1.025,1.025,0,0,0,.779.836c1.694.519,3.374,1.087,5.059,1.638.273.089.57.139.719.434Zm-14.7,3.166c.837-.272,1.542-.481,2.23-.733a.9.9,0,0,1,1.005.157c.554.47,1.147.9,1.851,1.437,0-.841.031-1.524-.01-2.2a1.042,1.042,0,0,1,.556-1.083c.618-.373,1.193-.817,1.85-1.275-.854-.287-1.594-.558-2.35-.778a.668.668,0,0,1-.524-.535c-.2-.752-.44-1.5-.706-2.385-.5.694-.951,1.271-1.355,1.877a.912.912,0,0,1-.91.458c-.741-.041-1.485-.011-2.229-.011l-.205.125C1816.87,181.155,1816.582,182.839,1815.633,184.733Z" transform="translate(-217.371 -59.659)"/><path class="a" d="M1537.066,180.517c.016-1.568.016-1.569,1.342-2.008,1.448-.48,2.891-.98,4.35-1.426a1.083,1.083,0,0,0,.854-.854c.449-1.667.975-3.313,1.446-4.975a.907.907,0,0,1,.7-.691c1.578-.538,2.7-.253,3.521,1.349a28.231,28.231,0,0,0,2.184,3.079.867.867,0,0,0,.848.424c1.85-.073,3.7-.1,5.554-.17.441-.018.6.142.8.529a2.986,2.986,0,0,1-.524,3.887,32.353,32.353,0,0,0-2.03,2.733,1.081,1.081,0,0,0-.146,1.2c.618,1.664,1.184,3.348,1.8,5.014.149.405.033.612-.238.937a2.779,2.779,0,0,1-3.785.78,31.911,31.911,0,0,0-3.142-1.065,1.273,1.273,0,0,0-1.4.238c-1.284,1.043-2.625,2.015-3.919,3.047a.818.818,0,0,1-.993.14c-.661-.316-1.595-.4-1.956-.909-.342-.481-.1-1.382-.105-2.1-.006-1.287-.022-2.575.005-3.861a.863.863,0,0,0-.445-.837c-1.212-.806-2.374-1.692-3.615-2.45C1537.309,182,1536.75,181.418,1537.066,180.517Zm14.447,4.342.163.02-.065-.127c-.219-.678-.409-1.368-.669-2.03a.849.849,0,0,1,.133-.946c.458-.588.876-1.208,1.353-1.875-.869,0-1.608-.028-2.342.012a.861.861,0,0,1-.855-.422c-.421-.618-.876-1.212-1.388-1.912-.222.762-.434,1.365-.568,1.985a1.231,1.231,0,0,1-1.025,1.075c-.641.146-1.257.407-1.972.647.727.5,1.344.955,1.986,1.364a.79.79,0,0,1,.41.786c-.026.751-.008,1.5-.008,2.4a17.219,17.219,0,0,0,1.515-1.169,1.452,1.452,0,0,1,1.785-.295A14.342,14.342,0,0,0,1551.513,184.859Z" transform="translate(0 -59.9)"/><path class="a" d="M1610.417,243.16l.065.127-.163-.02A1.226,1.226,0,0,1,1610.417,243.16Z" transform="translate(-58.805 -118.308)"/></g></svg>