<svg xmlns="http://www.w3.org/2000/svg" width="91" height="88" viewBox="0 0 91 88">
  <g id="Group_2037" data-name="Group 2037" transform="translate(-610 -10129)">
    <ellipse id="Ellipse_16" data-name="Ellipse 16" cx="45.5" cy="44" rx="45.5" ry="44" transform="translate(610 10129)" fill="#086060"/>
    <path id="Path_8653" data-name="Path 8653" d="M15,4A10.985,10.985,0,0,0,6.184,21.559,18.187,18.187,0,0,0,6,24,18,18,0,0,0,24,42a18.187,18.187,0,0,0,2.441-.184A10.985,10.985,0,0,0,41.816,26.441,18.187,18.187,0,0,0,42,24,18,18,0,0,0,24,6a18.187,18.187,0,0,0-2.441.184A10.937,10.937,0,0,0,15,4Zm0,4a6.943,6.943,0,0,1,4.172,1.391l1.3.976,1.617-.219A13.881,13.881,0,0,1,37.852,25.906l-.219,1.617.976,1.3a6.988,6.988,0,0,1-9.781,9.781l-1.3-.976-1.617.219A14.362,14.362,0,0,1,24,38,13.881,13.881,0,0,1,10.148,22.094l.219-1.617-.976-1.3A6.988,6.988,0,0,1,15,8Zm8.7,6c-7.52,0-8.074,4.418-8.074,5.508a4.863,4.863,0,0,0,3.367,4.668,63.549,63.549,0,0,0,6.555,1.812c2.434.666,2.125,2.007,2.125,2.2,0,2.06-2.822,2.591-4.024,2.477-1.36-.128-2.737.261-4.171-2.691a2.353,2.353,0,0,0-2.141-1.684c-.612,0-2.141.466-2.141,1.926,0,2.864,3.2,5.781,8.762,5.781,2.908,0,8.332-1.007,8.336-6.223,0-4.542-4.581-5.339-7.949-6.207-.922-.238-4.36-.618-4.36-2.418,0-.534.748-1.816,3.442-1.816,2.774,0,3.378,1.3,3.746,1.973a3.335,3.335,0,0,0,.871,1.144,2.182,2.182,0,0,0,2.75-.23,1.95,1.95,0,0,0,.6-1.391C31.391,16.57,28.715,14,23.7,14Z" transform="translate(632 10149)" fill="#fff"/>
  </g>
</svg>
