<svg xmlns="http://www.w3.org/2000/svg" width="90.417" height="92.08" viewBox="0 0 90.417 92.08"><defs><style>.a{fill:#00a542;}</style></defs><g transform="translate(-1613.369 -218.885)"><path class="a" d="M1640.5,450.078q-9.556,0-19.112,0c-4.831,0-8-3.186-8.007-8.03,0-.817-.02-1.636.006-2.452a1.491,1.491,0,0,1,1.6-1.587,19.391,19.391,0,0,1,2.164.008c.626.05.769-.165.766-.773-.024-5.5-.014-11-.014-16.507q0-6.98,0-13.96c0-1.483.494-1.98,1.968-1.981q6.543,0,13.087,0c1.275,0,1.973.527,1.987,1.486.014.993-.7,1.532-2.036,1.532-3.735,0-7.469.02-11.2-.017-.681-.007-.805.194-.8.834q.033,14.29,0,28.58c0,.678.186.809.829.808q18.783-.031,37.565,0c.67,0,.816-.174.812-.826-.031-4.559-.019-9.118-.014-13.677,0-1.023.418-1.618,1.2-1.762,1.056-.194,1.806.5,1.808,1.713.009,4.025-.006,8.049.012,12.074,0,.8-.36,1.874.164,2.336.447.394,1.491.118,2.27.123,1.609.01,2.092.467,2.072,2.065a21.651,21.651,0,0,1-.107,3.67,7.479,7.479,0,0,1-7.518,6.337C1653.488,450.093,1646.991,450.078,1640.5,450.078Zm.1-9.057h-18.631c-1.662,0-3.325,0-4.987,0-.248,0-.555-.131-.6.349-.281,3.127,1.279,5.125,3.8,5.615a11.24,11.24,0,0,0,2.064.066c1.549.007,1.549,0,1.678-1.526a1.5,1.5,0,0,1,3,.022,2.252,2.252,0,0,1,0,.565c-.144.79.171.965.949.962,8.123-.032,16.247-.019,24.37-.021.562,0,1.242.171,1.652-.084s.1-.984.157-1.5a1.505,1.505,0,0,1,3-.05c.078.541-.273,1.287.194,1.575.411.253,1.1.059,1.662.062h.564c3.366,0,5.11-1.8,5.14-5.2.007-.726-.2-.858-.879-.856C1656.028,441.031,1648.312,441.022,1640.6,441.022Z" transform="translate(0 -139.118)"/><path class="a" d="M1680.413,383.128c.87,1.524,1.727,3.012,2.57,4.508a4.525,4.525,0,1,1-7.815,4.529c-.773-1.327-1.594-2.632-2.274-4.006-.449-.909-.833-.927-1.64-.4a5.719,5.719,0,0,1-5.387.591,2.731,2.731,0,0,1-1.071-.561c-.816-.916-1.517-.573-2.4-.06a4.514,4.514,0,1,1-4.4-7.867,1.689,1.689,0,0,0,1.076-1.988,5.6,5.6,0,0,1,2.4-5.228,2.344,2.344,0,0,1,.388-.265c6.591-3.221,11.866-8.245,17.469-12.817,3.307-2.7,6.583-5.436,9.876-8.152,1.15-.948,2.026-.8,2.771.46.416.7.832,1.4,1.225,2.116a1.549,1.549,0,0,1-.429,2.23,1.446,1.446,0,0,1-2.135-.67c-.437-.877-.734-.832-1.446-.237q-8.633,7.216-17.342,14.341c-.523.429-.66.712-.271,1.344,1.133,1.841,2.183,3.733,3.256,5.612.6,1.054.479,1.91-.322,2.392-.825.5-1.689.168-2.307-.9-1.07-1.844-2.152-3.681-3.18-5.547-.28-.509-.483-.578-.98-.274-1.47.9-2.983,1.722-4.461,2.606a2.993,2.993,0,0,0-1.126,4.3q1.363,2.416,2.773,4.806c1,1.7,2.7,2.249,4.328,1.172,6.325-4.18,13.6-6.134,20.529-8.879,3.111-1.231,6.253-2.385,9.394-3.537.618-.227.818-.361.413-1.045-2.062-3.478-4.053-7-6.083-10.495a1.623,1.623,0,0,1-.064-1.929,1.5,1.5,0,0,1,2.57.239c.876,1.448,1.7,2.925,2.55,4.391q2.346,4.074,4.686,8.153c.769,1.346.477,2.158-.969,2.7q-10.753,4.054-21.51,8.1C1680.869,382.935,1680.67,383.022,1680.413,383.128Zm.286,6.9a1.783,1.783,0,0,0-.341-.862q-.876-1.5-1.747-3c-1.22-2.1-1.22-2.1-3.262-.726-.052.035-.109.061-.164.091a.291.291,0,0,0-.131.459c1.012,1.726,1.99,3.473,3.051,5.168a1.271,1.271,0,0,0,1.605.414A1.5,1.5,0,0,0,1680.7,390.028Zm-20.51-4.641a2.653,2.653,0,0,0,1.6-.887c.345-.357-.31-.833-.5-1.261-.164-.368-.4-.7-.6-1.058-.123-.223-.256-.331-.513-.161a12.6,12.6,0,0,0-1.258.8,1.342,1.342,0,0,0-.392,1.611C1658.765,385.033,1659.224,385.361,1660.19,385.386Z" transform="translate(-31.487 -98.71)"/><path class="a" d="M1878.351,224.856c2.918,0,5.836-.005,8.755,0a4.516,4.516,0,0,1,4.8,4.761q.014,8.818,0,17.636a4.515,4.515,0,0,1-4.793,4.769q-8.755.011-17.509,0a4.532,4.532,0,0,1-4.813-4.844q-.009-4.1,0-8.2c0-1.344.538-2.055,1.53-2.038s1.482.708,1.483,2.087q0,4.008,0,8.016c0,1.469.5,1.965,1.984,1.966q8.566,0,17.133,0c1.473,0,1.973-.5,1.973-1.978q0-8.582,0-17.165c0-1.485-.5-1.987-1.963-1.987q-8.566,0-17.133,0c-1.52,0-1.993.49-2,2.047,0,.786.016,1.572-.005,2.358a1.508,1.508,0,1,1-3-.027q-.029-1.461,0-2.924a4.5,4.5,0,0,1,4.521-4.468C1872.326,224.838,1875.339,224.856,1878.351,224.856Z" transform="translate(-188.133 -4.463)"/><path class="a" d="M1878.375,437.959c-2.918,0-5.836.006-8.754,0a4.532,4.532,0,0,1-4.808-4.85q-.008-8.724,0-17.448a4.537,4.537,0,0,1,4.882-4.87q8.708-.005,17.415,0a4.525,4.525,0,0,1,4.821,4.836q.011,4.2,0,8.394c0,1.18-.579,1.87-1.524,1.858s-1.484-.7-1.486-1.894c0-2.766,0-5.533,0-8.3,0-1.348-.531-1.874-1.885-1.875q-8.66-.006-17.321,0c-1.355,0-1.883.525-1.884,1.875q-.007,8.677,0,17.353c0,1.367.519,1.9,1.86,1.9q8.707.008,17.415,0c1.275,0,1.8-.553,1.815-1.852.008-.849-.014-1.7.006-2.546a1.507,1.507,0,1,1,3,.013q.031,1.462,0,2.924a4.5,4.5,0,0,1-4.514,4.476C1884.4,437.979,1881.388,437.959,1878.375,437.959Z" transform="translate(-188.157 -143.603)"/><path class="a" d="M1613.4,292.334q0-5.751,0-11.5c0-1.483.495-1.981,1.964-1.982q8.61,0,17.219,0c1.4,0,1.906.519,1.907,1.946q0,11.642,0,23.284c0,1.419-.513,1.936-1.919,1.937q-8.609.005-17.219,0c-1.463,0-1.952-.5-1.953-2Q1613.392,298.178,1613.4,292.334Zm18.08.2c0-3.3-.016-6.6.015-9.9.005-.615-.154-.775-.769-.771q-6.779.041-13.557,0c-.614,0-.771.155-.769.771q.035,9.81,0,19.62c0,.614.153.775.768.771q6.779-.041,13.558,0c.614,0,.776-.155.77-.771C1631.458,299.007,1631.475,295.768,1631.475,292.529Z" transform="translate(-0.019 -44.871)"/><path class="a" d="M1709.175,232.478a13.559,13.559,0,1,1,13.4,13.575A13.585,13.585,0,0,1,1709.175,232.478Zm24.1-.049a10.544,10.544,0,1,0-10.573,10.6A10.565,10.565,0,0,0,1733.277,232.429Z" transform="translate(-71.693 0)"/><path class="a" d="M1894.752,446.752a6.026,6.026,0,1,1,5.982,6.1A6.04,6.04,0,0,1,1894.752,446.752Zm6.022,3.08a3.015,3.015,0,1,0-3.006-2.971A3.025,3.025,0,0,0,1900.774,449.832Z" transform="translate(-210.563 -166.047)"/><path class="a" d="M1897.776,260.387c0-.251,0-.5,0-.753,0-.534.181-1.186-.06-1.569-.273-.433-.977-.119-1.49-.176a1.509,1.509,0,0,1,.064-3.018c1.457-.1,1.457-.1,1.487-1.528a4.524,4.524,0,0,1,4.477-4.508q1.456-.029,2.914,0a1.51,1.51,0,1,1,.023,3.01c-.877.022-1.754,0-2.632.008a2.013,2.013,0,0,0-1.762,2.836c.112.233.3.171.473.176.375.011.754-.02,1.127.016a1.494,1.494,0,0,1,1.4,1.493,1.522,1.522,0,0,1-1.393,1.508c-.518.066-1.271-.246-1.5.138-.266.44-.1,1.147-.109,1.738-.009.848.014,1.7-.008,2.543a1.508,1.508,0,1,1-3.006-.03C1897.762,261.643,1897.776,261.015,1897.776,260.387Z" transform="translate(-210.575 -22.4)"/><path class="a" d="M1853.943,385.309a1.591,1.591,0,0,1-1.744-1.36,1.543,1.543,0,0,1,1.334-1.656q3.629-.743,7.262-1.469c1.126-.224,1.932.234,2.1,1.169s-.332,1.6-1.421,1.833c-2.356.494-4.716.968-7.076,1.445A3.13,3.13,0,0,1,1853.943,385.309Z" transform="translate(-178.713 -121.139)"/><path class="a" d="M1818.451,323.8a1.5,1.5,0,0,1-1.377-.75,1.314,1.314,0,0,1,0-1.515c1.557-2.122,3.115-4.246,4.74-6.316a1.343,1.343,0,0,1,1.95-.178,1.4,1.4,0,0,1,.38,2c-1.524,2.107-3.1,4.178-4.672,6.251A1.376,1.376,0,0,1,1818.451,323.8Z" transform="translate(-152.256 -71.702)"/><path class="a" d="M1843.9,346.285a1.614,1.614,0,0,1-.7,1.308c-1.953,1.469-3.9,2.947-5.868,4.393a1.505,1.505,0,1,1-1.81-2.4c1.966-1.5,3.953-2.979,5.936-4.459a1.427,1.427,0,0,1,1.672-.123A1.482,1.482,0,0,1,1843.9,346.285Z" transform="translate(-165.735 -94.216)"/><path class="a" d="M1641.909,326.812c.939,0,1.878-.014,2.816,0a1.515,1.515,0,1,1-.025,3.013q-2.817.023-5.633,0a1.524,1.524,0,0,1-1.709-1.473c-.022-.923.647-1.527,1.734-1.542C1640.031,326.8,1640.97,326.812,1641.909,326.812Z" transform="translate(-17.951 -80.759)"/><path class="a" d="M1641.871,353.815c-.939,0-1.878.012-2.817,0a1.524,1.524,0,0,1-1.7-1.486,1.5,1.5,0,0,1,1.653-1.526q2.863-.026,5.727,0a1.505,1.505,0,0,1,1.65,1.529,1.53,1.53,0,0,1-1.7,1.483C1643.749,353.827,1642.81,353.815,1641.871,353.815Z" transform="translate(-17.951 -98.703)"/><path class="a" d="M1652.321,305.8c-.532,0-1.066.035-1.594-.008a1.486,1.486,0,0,1-1.4-1.49,1.455,1.455,0,0,1,1.385-1.5c1.092-.05,2.191-.054,3.282,0a1.5,1.5,0,0,1,.012,2.975,13.218,13.218,0,0,1-1.687.014Z" transform="translate(-26.909 -62.767)"/><path class="a" d="M1745.077,254.9c0-1.413-.015-2.826,0-4.238a1.516,1.516,0,0,1,2.349-1.488c2.916,1.434,5.813,2.907,8.719,4.361a1.533,1.533,0,0,1-.023,2.857c-2.906,1.455-5.8,2.928-8.72,4.36-1.282.63-2.308-.058-2.325-1.519C1745.063,257.79,1745.077,256.345,1745.077,254.9Zm7.171.056-4.093-2.05v4.106Z" transform="translate(-98.555 -22.488)"/></g></svg>