<svg xmlns="http://www.w3.org/2000/svg" width="88" height="88" viewBox="0 0 88 88"><path d="M68,3H26A23.026,23.026,0,0,0,3,26V68A23.026,23.026,0,0,0,26,91H68A23.026,23.026,0,0,0,91,68V26A23.026,23.026,0,0,0,68,3Zm8.23,72s-3.3-5.614-8.832-5.614C62.066,69.386,57.984,75,47.25,75,27.3,75,15.992,60.2,13.064,55.6a.4.4,0,0,1,.562-.532C22.11,60.4,30.316,63,36,63c8.314,0,13-4,13-4-7.658-4.51-26-25.5-29.908-31.362a.4.4,0,0,1,.586-.538C35.572,40.468,44.63,45.506,44.63,45.506,41.266,42.682,31.25,29.5,27.084,23.636a.4.4,0,0,1,.592-.524C39.076,33.712,59,49,59,49a33.973,33.973,0,0,0,2-11c-.134-8.538-5.64-17.052-7.922-20.382a.4.4,0,0,1,.582-.532C68.5,27.75,73,41.066,73,48.75a19.474,19.474,0,0,1-2,9S79.464,66.984,76.23,75Z" transform="translate(-3 -3)"/></svg>