<svg xmlns="http://www.w3.org/2000/svg" width="41.351" height="41.347" viewBox="0 0 41.351 41.347"><g transform="translate(0 -0.001)"><path d="M1621.824,3078.048a20.674,20.674,0,1,1,20.674-20.673A20.7,20.7,0,0,1,1621.824,3078.048Zm0-38.964a18.29,18.29,0,1,0,18.288,18.291A18.309,18.309,0,0,0,1621.824,3039.084Z" transform="translate(-1601.148 -3036.701)"/><g transform="translate(9.281 12.345)"><g transform="translate(5.037 9.539)"><path d="M1613.354,3057.893a.473.473,0,0,1-.443-.31l-1.973-5.328a.472.472,0,1,1,.886-.327l1.973,5.327a.474.474,0,0,1-.279.606A.466.466,0,0,1,1613.354,3057.893Z" transform="translate(-1610.908 -3051.62)"/></g><g transform="translate(7.038 10.526)"><path d="M1612.745,3057.634a.473.473,0,0,1-.472-.493l.2-4.4a.472.472,0,0,1,.757-.354l2.633,2a.473.473,0,0,1,.021.736l-2.831,2.4A.471.471,0,0,1,1612.745,3057.634Zm.629-3.95-.109,2.418,1.555-1.319Z" transform="translate(-1612.273 -3052.292)"/></g><path d="M1622.417,3061.775a1.653,1.653,0,0,1-1-.339l-6.517-4.946a.469.469,0,0,1-.187-.36.478.478,0,0,1,.16-.371l4.407-3.862-6.051,3.635a.47.47,0,0,1-.393.043l-4.643-1.568a1.052,1.052,0,0,1-.037-1.981l18-6.84h0a1.052,1.052,0,0,1,1.394,1.238l-3.522,14.094a1.652,1.652,0,0,1-1.059,1.162A1.674,1.674,0,0,1,1622.417,3061.775Zm-6.487-5.687,6.057,4.6a.714.714,0,0,0,1.124-.4l3.523-14.093a.105.105,0,0,0-.034-.107.1.1,0,0,0-.11-.019l-18,6.84a.107.107,0,0,0,0,.2l4.436,1.5,10.383-6.238a.472.472,0,0,1,.555.76Z" transform="translate(-1607.475 -3045.116)"/></g></g></svg>