<svg xmlns="http://www.w3.org/2000/svg" width="82.206" height="80.189" viewBox="0 0 82.206 80.189"><defs><style>.a,.b{fill:#252b33;}.a{isolation:isolate;}</style></defs><g transform="translate(-710.034 -811.52)"><path class="a" d="M710.88,873.7s2.471-19.353,29.647-43.235c0,0,1.235-3.294-20.588-10.706l7.823-8.235s13.588.824,22.647,10.706c0,0,16.059-12.765,23.059-10.294l8.235,7.823-20.176,11.117s30.47,26.765,28,41.176l-6.588,8.647s-12.765-30.058-32.529-42c0,0-21.412,16.882-31.294,41.588Z" transform="translate(0.605)"/><path class="b" d="M719.309,845.7l1.647-13.176L731.25,824.7s-7-10.706-20.176-5.353C711.074,819.345,705.721,830.463,719.309,845.7Z" transform="translate(0 4.528)"/><path class="b" d="M746.64,824.978s11.941-12.353,19.353-4.118c0,0,1.235,18.529-8.647,24.706L755.7,831.155Z" transform="translate(26.198 4.659)"/><path class="b" d="M729.669,822.08s-13.176,7.823-11.529,13.176C718.14,835.256,726.375,832.786,729.669,822.08Z" transform="translate(5.699 7.557)"/><path class="b" d="M755.976,833.438s-.824-7.823-13.176-11.117C742.8,822.32,753.506,838.79,755.976,833.438Z" transform="translate(23.45 7.729)"/><path class="b" d="M766.254,857.863s-4.117-13.588-22.235-28.823c0,0-19.353,14.412-23.059,29.235,0,0,11.941,9.882,22.647,13.176C743.607,871.451,760.077,866.51,766.254,857.863Z" transform="translate(7.819 12.538)"/><path class="b" d="M741.244,859.049s-13.588-6.588-20.588-11.529c0,0-8.647,14,2.059,18.118A20.032,20.032,0,0,0,741.244,859.049Z" transform="translate(5.241 25.764)"/><path class="b" d="M737.04,859.769s16.059-6.176,20.176-11.529c0,0,7,10.294,1.235,16.059C758.452,864.3,744.864,867.593,737.04,859.769Z" transform="translate(19.327 26.279)"/></g></svg>