<svg xmlns="http://www.w3.org/2000/svg" width="41.35" height="41.349" viewBox="0 0 41.35 41.349"><path d="M1653.954,3019.4a10.564,10.564,0,0,0,5.715,1.674c8.265,0,10.833-5.845,10.6-11.091a6.624,6.624,0,0,0,1.86-1.93,6.915,6.915,0,0,1-2.065.6,3.631,3.631,0,0,0,1.564-2.073,7.482,7.482,0,0,1-2.368.905,3.733,3.733,0,0,0-2.722-1.177,3.859,3.859,0,0,0-3.59,4.762,10.853,10.853,0,0,1-7.726-4.08,3.731,3.731,0,0,0,1.153,4.977,3.691,3.691,0,0,1-1.689-.465,3.73,3.73,0,0,0,2.99,3.7,3.752,3.752,0,0,1-1.682.065,3.825,3.825,0,0,0,3.642,2.462A8,8,0,0,1,1653.954,3019.4Z" transform="translate(-1642.365 -2993.012)"/><path d="M1666.728,3038.592a20.674,20.674,0,1,1,20.676-20.675A20.7,20.7,0,0,1,1666.728,3038.592Zm0-38.965a18.291,18.291,0,1,0,18.289,18.291A18.309,18.309,0,0,0,1666.728,2999.626Z" transform="translate(-1646.054 -2997.243)"/></svg>