<svg xmlns="http://www.w3.org/2000/svg" width="121" height="114" viewBox="0 0 121 114"><defs><style>.a,.d{fill:none;}.a{stroke:#067474;stroke-width:2px;}.b{fill:#00a542;}.c{stroke:none;}</style></defs><g transform="translate(-485 -4824)"><g class="a" transform="translate(485 4824)"><rect class="c" width="121" height="114" rx="16"/><rect class="d" x="1" y="1" width="119" height="112" rx="15"/></g><g transform="translate(-804.118 4797.246)"><path class="b" d="M1347.134,62.525q-18.425,0-36.849-.018c-.767,0-.952.191-.951.953q.036,24.2.018,48.4c0,1.551.391,1.942,1.936,1.942h28.5a4.258,4.258,0,0,1,.758.018,1.34,1.34,0,0,1,.023,2.657,4.43,4.43,0,0,1-.841.023q-14.293,0-28.585,0c-2.857,0-4.489-1.639-4.489-4.5,0-19.561.025-39.123-.031-58.684A4.352,4.352,0,0,1,1310.96,49q36.258.078,72.517.031a3.982,3.982,0,0,1,4.14,4.113q0,29.468,0,58.937a4.081,4.081,0,0,1-4.405,4.416q-3.71,0-7.42,0c-1.06,0-1.674-.515-1.663-1.362s.619-1.331,1.692-1.333c2.473-.005,4.947,0,7.42,0,1.2,0,1.674-.477,1.674-1.691q0-24.409.019-48.819c0-.637-.16-.776-.783-.775Q1365.643,62.54,1347.134,62.525Zm-.04-2.7q18.512,0,37.024.016c.67,0,.834-.178.817-.828-.046-1.742-.016-3.485-.016-5.228,0-1.626-.422-2.056-2.025-2.056h-71.6c-1.486,0-1.939.463-1.94,1.973,0,1.743.042,3.487-.018,5.228-.025.734.155.917.9.915Q1328.667,59.805,1347.094,59.827Z" transform="translate(0 0)"/><path class="b" d="M1386.75,238.206c0-.843-.01-1.687,0-2.53a1.36,1.36,0,0,1,1.255-1.519c1.373-.288,2.746-.58,4.127-.821a.817.817,0,0,0,.766-.721,8.981,8.981,0,0,1,.623-1.915,1.091,1.091,0,0,0-.309-1.454c-.912-.914-1.774-1.881-2.642-2.838a1.4,1.4,0,0,1-.138-2.04q1.443-2.024,2.921-4.022a1.407,1.407,0,0,1,2.049-.5c1.253.563,2.51,1.12,3.741,1.727a.812.812,0,0,0,1.037-.131,8.416,8.416,0,0,1,1.555-1.147,1.214,1.214,0,0,0,.649-1.511c-.193-1.248-.336-2.505-.452-3.763-.094-1.02.206-1.425,1.183-1.747,1.518-.5,3.036-1,4.558-1.481a1.433,1.433,0,0,1,2.024.8c.668,1.169,1.35,2.332,1.973,3.524a.833.833,0,0,0,.987.531,3.293,3.293,0,0,1,1.092-.018,2.072,2.072,0,0,0,2.614-1.5,23.059,23.059,0,0,1,1.455-2.653,1.418,1.418,0,0,1,1.85-.724c1.6.513,3.2,1.041,4.8,1.561a1.413,1.413,0,0,1,1.076,1.668c-.162,1.366-.312,2.735-.5,4.1a.928.928,0,0,0,.514,1.095,5.469,5.469,0,0,1,1.3.932,1.425,1.425,0,0,0,1.974.251c1.051-.583,2.175-1.036,3.275-1.529a1.385,1.385,0,0,1,1.983.492q1.483,1.994,2.927,4.018a1.42,1.42,0,0,1-.157,2.108c-.908,1-1.809,2-2.756,2.963a.872.872,0,0,0-.2,1.168,4.3,4.3,0,0,1,.448,1.352c.135,1.072.748,1.455,1.765,1.573,1.111.129,2.2.416,3.3.648a1.378,1.378,0,0,1,1.312,1.557q.018,2.487,0,4.975a1.383,1.383,0,0,1-1.284,1.583c-1.372.289-2.746.575-4.126.824-.417.075-.642.224-.723.66a4.125,4.125,0,0,1-.4,1.279,1.854,1.854,0,0,0,.55,2.662,13.635,13.635,0,0,1,1.6,1.728,1.341,1.341,0,0,1-.015,1.895,1.305,1.305,0,0,1-1.947-.075c-1.109-1.155-2.18-2.347-3.266-3.525a1.35,1.35,0,0,1-.248-1.564,22.107,22.107,0,0,0,1.411-4.308,1.375,1.375,0,0,1,1.2-1.125c1.35-.26,2.692-.559,4.045-.805.382-.07.545-.209.506-.6a6.708,6.708,0,0,1,0-.674c0-2.069,0-2.065-2.053-2.444-.855-.158-1.706-.34-2.559-.509a1.333,1.333,0,0,1-1.133-1.1,21.875,21.875,0,0,0-1.409-4.308,1.441,1.441,0,0,1,.338-1.7c.926-.98,1.823-1.989,2.756-2.963.286-.3.328-.5.05-.84-.552-.667-.939-1.74-1.614-1.954-.6-.191-1.5.545-2.265.883-.667.294-1.322.613-1.991.9a1.36,1.36,0,0,1-1.564-.237,20.9,20.9,0,0,0-3.665-2.68,1.485,1.485,0,0,1-.695-1.664c.172-1.28.3-2.566.47-3.846.059-.44-.047-.662-.506-.778-.813-.205-1.7-.814-2.386-.627-.651.178-.855,1.3-1.276,1.987-.365.6-.706,1.213-1.032,1.833a1.506,1.506,0,0,1-1.666.863,15.919,15.919,0,0,0-4.2,0,1.512,1.512,0,0,1-1.653-.886c-.63-1.158-1.311-2.289-1.924-3.455a.6.6,0,0,0-.855-.344c-2.519.748-2.521.74-2.186,3.356.082.641.156,1.283.254,1.921a1.513,1.513,0,0,1-.791,1.7,18.667,18.667,0,0,0-3.46,2.53,1.526,1.526,0,0,1-1.859.253c-1.19-.565-2.4-1.09-3.581-1.673a.576.576,0,0,0-.888.229c-.461.7-1.324,1.356-1.36,2.064-.037.732,1,1.253,1.54,1.891.452.537.943,1.042,1.426,1.552a1.442,1.442,0,0,1,.308,1.7,21.089,21.089,0,0,0-1.384,4.228,1.383,1.383,0,0,1-1.177,1.157c-1.347.272-2.69.572-4.044.807-.429.075-.564.227-.548.645.033.842-.266,1.864.114,2.477s1.519.46,2.323.646c.738.17,1.484.305,2.224.465a1.351,1.351,0,0,1,1.086,1.048c.23.867.474,1.73.692,2.6a1.344,1.344,0,0,1-.832,1.7,1.365,1.365,0,0,1-1.733-.92.567.567,0,0,1-.051-.16c-.111-1.58-1.093-2.108-2.534-2.225a21.39,21.39,0,0,1-2.726-.523,1.366,1.366,0,0,1-1.255-1.521C1386.739,239.893,1386.75,239.049,1386.75,238.206Z" transform="translate(-66.603 -135.204)"/><path class="b" d="M1480.226,289.065a13.492,13.492,0,0,1,2.436,26.762,14.52,14.52,0,0,1-2.177.211c-.989.034-1.6-.493-1.616-1.313s.573-1.337,1.568-1.378a10.8,10.8,0,0,0,8.846-16.633,10.788,10.788,0,1,0-18.119,11.716,1.45,1.45,0,0,1,.082,1.727,1.28,1.28,0,0,1-1.414.51,1.5,1.5,0,0,1-.944-.776,13.509,13.509,0,0,1,8.413-20.5A12.767,12.767,0,0,1,1480.226,289.065Z" transform="translate(-133.078 -199.554)"/><path class="b" d="M1348.173,179.821q-3.831,0-7.661,0c-1.071,0-1.677-.491-1.686-1.336s.6-1.359,1.661-1.36q7.787-.006,15.575,0c1.045,0,1.665.533,1.644,1.376-.02.814-.619,1.316-1.62,1.318C1353.449,179.826,1350.811,179.821,1348.173,179.821Z" transform="translate(-26.77 -106.501)"/><path class="b" d="M1344.127,211.786c-1.262,0-2.523.011-3.785,0a1.365,1.365,0,0,1-1.521-1.329,1.344,1.344,0,0,1,1.482-1.362q3.911-.02,7.822,0a1.342,1.342,0,0,1,1.48,1.366,1.368,1.368,0,0,1-1.526,1.324C1346.763,211.8,1345.445,211.786,1344.127,211.786Z" transform="translate(-26.765 -133.069)"/><path class="b" d="M1340.178,81.178a1.348,1.348,0,1,1-1.379,1.295A1.353,1.353,0,0,1,1340.178,81.178Z" transform="translate(-26.746 -26.748)"/><path class="b" d="M1373.48,82.547a1.349,1.349,0,1,1-1.3-1.371A1.362,1.362,0,0,1,1373.48,82.547Z" transform="translate(-53.334 -26.745)"/><path class="b" d="M1404.13,83.868a1.349,1.349,0,1,1,1.336-1.339A1.361,1.361,0,0,1,1404.13,83.868Z" transform="translate(-79.923 -26.741)"/></g></g></svg>