<svg xmlns="http://www.w3.org/2000/svg" width="93.288" height="97.307" viewBox="0 0 93.288 97.307"><defs><style>.a{fill:#00a542;}</style></defs><path class="a" d="M1825.8,305.309h2.466c.27.347.691.189,1.033.289a7.748,7.748,0,0,1,3.7,12.531q-5.75,7.121-11.565,14.19a2.476,2.476,0,0,0-.6,1.705q.025,24.029.016,48.058a10.094,10.094,0,0,1-.256,2.541,7.625,7.625,0,0,1-7.705,5.778q-10.189.024-20.379-.014c-.719,0-.895.181-.87.884.056,1.644.049,3.293,0,4.938-.017.608.17.737.739.719q2.036-.064,4.075-.006a2.846,2.846,0,0,1,2.418,4.3,4.512,4.512,0,0,1-1.706,1.395h-32.055a.834.834,0,0,0-.171-.2c-1.487-.875-2.069-2.054-1.686-3.428a2.942,2.942,0,0,1,3.129-2.075c1.233,0,2.467-.037,3.7.015.61.026.732-.18.719-.748-.039-1.582-.059-3.168.005-4.749.032-.8-.137-1.057-1.009-1.051-6.7.044-13.4.03-20.1.022-4.9-.006-8.1-3.236-8.1-8.162q0-22.371,0-44.743c0-5.036,3.187-8.209,8.241-8.209q22.231,0,44.463.012a2.244,2.244,0,0,0,1.535-.549c7.034-5.779,14.045-11.587,21.141-17.288C1819.767,309.217,1822.2,306.4,1825.8,305.309Zm-36.543,29.672c-13.369,0-26.579,0-39.789.006-1.5,0-2.189.774-2.19,2.351q0,18.194-.023,36.387c0,.821.235.957.994.956q32.948-.033,65.9,0c.85,0,1.026-.216,1.024-1.04q-.045-16.246-.02-32.492v-.863c-.456.158-.593.5-.8.75-2.068,2.517-4.09,5.073-6.194,7.558a10.961,10.961,0,0,1-8.247,4.055c-1.012.035-1.262.239-1.235,1.293a11.89,11.89,0,0,1-9.766,12.294,33.057,33.057,0,0,1-5.857.281,12.443,12.443,0,0,0-7.579,2.235,2.746,2.746,0,0,1-3.552-.395,2.8,2.8,0,0,1-.236-3.648,10.609,10.609,0,0,0,1.817-4.324c.477-2.259.212-4.546.338-6.816.276-4.984,2.465-8.747,7.088-10.9a12.279,12.279,0,0,1,5.992-1.086c.3.017.731.212.71-.417A11.848,11.848,0,0,1,1789.262,334.981Zm-8.036,45.383h-31.95c-2.006,0-2.006,0-1.995,2,.01,1.61.7,2.341,2.3,2.341q31.618.008,63.236,0a2.036,2.036,0,0,0,2.342-2.309,6.278,6.278,0,0,1,.008-.854c.139-.908-.128-1.207-1.134-1.2C1803.094,380.381,1792.16,380.364,1781.225,380.364Zm47.989-67.41a1.991,1.991,0,0,0-1.168-1.733,1.935,1.935,0,0,0-2.205.316q-3.047,2.488-6.088,4.984-7.226,5.915-14.463,11.816c-.536.434-.538.647-.053,1.118,1.927,1.874,3.814,3.788,5.7,5.7.309.313.486.476.859.016q8.42-10.389,16.875-20.749A2.23,2.23,0,0,0,1829.214,312.954ZM1784.262,360.8c.757,0,1.516.03,2.271-.005a6.425,6.425,0,0,0,6.466-7.329,6.893,6.893,0,0,0-6.362-6.18,6.3,6.3,0,0,0-6.973,5.382,12.847,12.847,0,0,0-.153,2.55,27.417,27.417,0,0,1-.292,5.387c-.094.516.038.581.519.5A22.988,22.988,0,0,1,1784.262,360.8Zm9.059-19.777a5.933,5.933,0,0,0,3.729,5.55,5.823,5.823,0,0,0,6.526-1.408c1.379-1.52,2.611-3.173,3.943-4.737.365-.429.062-.6-.173-.835-2.209-2.218-4.429-4.426-6.621-6.661-.365-.372-.59-.389-.99-.05-1.421,1.207-2.891,2.354-4.312,3.56A5.731,5.731,0,0,0,1793.321,341.025Zm-12.087,49.381c-1.358,0-2.717.022-4.073-.011-.515-.013-.711.1-.7.664.037,1.74.03,3.481,0,5.22-.007.476.092.653.614.647q4.12-.041,8.242,0c.572.006.663-.2.654-.707-.028-1.676-.035-3.354,0-5.031.013-.6-.115-.827-.765-.8C1783.888,390.443,1782.561,390.406,1781.234,390.406Z" transform="translate(-1741.59 -305.309)"/></svg>