<svg xmlns="http://www.w3.org/2000/svg" width="91.398" height="83.086" viewBox="0 0 91.398 83.086"><path d="M93.479,42.916,74.143,8.61A7.17,7.17,0,0,0,68.018,5H29.378a7.17,7.17,0,0,0-6.126,3.61L3.917,42.916a7.626,7.626,0,0,0,0,7.253L23.253,84.476a7.17,7.17,0,0,0,6.126,3.61H68.018a7.183,7.183,0,0,0,6.126-3.61L93.479,50.17A7.626,7.626,0,0,0,93.479,42.916Zm-26.891,24.4H60.253a.846.846,0,0,1-.731-.455L48.8,46.956c-.056-.106-.139-.106-.2,0l-10.76,19.9a.82.82,0,0,1-.69.455H30.816a.9.9,0,0,1-.715-1.29L40.585,46.543,30.1,27.022a.9.9,0,0,1,.553-1.25h6.491a.864.864,0,0,1,.7.43L48.6,46.113c.056.106.139.106.2,0L59.514,26.2a.865.865,0,0,1,.739-.43h6.335a.9.9,0,0,1,.706,1.25L56.811,46.543,67.295,66.024A.9.9,0,0,1,66.588,67.314Z" transform="translate(-2.999 -5)"/></svg>