<svg xmlns="http://www.w3.org/2000/svg" width="41.349" height="41.346" viewBox="0 0 41.349 41.346"><path d="M1711.634,3037.441a20.672,20.672,0,1,1,20.675-20.67A20.7,20.7,0,0,1,1711.634,3037.441Zm0-38.961a18.289,18.289,0,1,0,18.288,18.291A18.309,18.309,0,0,0,1711.634,2998.48Z" transform="translate(-1690.96 -2996.096)"/><path d="M1718.939,3009.786a4.622,4.622,0,0,0-4.622-4.622H1702.5a4.621,4.621,0,0,0-4.622,4.622v5.5a4.622,4.622,0,0,0,4.622,4.622h11.82a4.622,4.622,0,0,0,4.622-4.622Zm-6.952,3.161-5.3,2.623c-.208.113-.914-.038-.914-.274v-5.382c0-.24.711-.39.92-.271l5.074,2.761C1711.98,3012.523,1712.2,3012.831,1711.987,3012.947Z" transform="translate(-1687.732 -2991.863)"/></svg>