<svg xmlns="http://www.w3.org/2000/svg" width="110" height="102.259" viewBox="0 0 110 102.259"><defs><style>.a{fill:#fff;}</style></defs><path class="a" d="M-395.872,287.549q-21.1,0-42.191,0c-5.813,0-8.9-3.072-8.9-8.86q0-18.815.024-37.63c0-1.065-.261-1.521-1.354-1.758-2.3-.5-2.532-.895-2.533-3.187q0-10.878,0-21.755c0-5.218,3.2-8.419,8.412-8.423,6.174,0,12.349-.035,18.523.03,1.139.012,1.347-.32,1.348-1.383a51.063,51.063,0,0,1,.173-8.215,12.66,12.66,0,0,1,12.332-10.909c9.406-.134,18.818-.152,28.224.008a12.715,12.715,0,0,1,12.468,12.829c.03,2.155.062,4.314-.017,6.467-.037,1,.31,1.2,1.239,1.192,6.321-.039,12.642-.025,18.964-.018,5.093.005,8.32,3.242,8.326,8.361q.014,10.951,0,21.9c0,2.153-.314,2.651-2.48,3.1-1.159.237-1.415.728-1.411,1.854.045,12.4-.1,24.8.089,37.189.083,5.376-3.194,9.352-9.2,9.272C-367.84,287.421-381.857,287.549-395.872,287.549Zm-46.966-46.808v1.642q0,18.156,0,36.313c0,3.441,1.26,4.723,4.669,4.724q42.345,0,84.69,0c3.4,0,4.664-1.295,4.664-4.732q0-18.157,0-36.313c0-.486,0-.973,0-1.454a2.956,2.956,0,0,0-1.506.173c-3.221.821-6.439,1.652-9.661,2.467q-13.716,3.469-27.439,6.907c-.982.244-1.378.627-1.285,1.673a25.083,25.083,0,0,1,0,3.525,4.839,4.839,0,0,1-4.741,4.677c-1.664.062-3.334.064-5,0a4.884,4.884,0,0,1-4.747-4.833,27.461,27.461,0,0,1,.014-3.379c.1-1.079-.3-1.506-1.33-1.763-9.675-2.409-19.337-4.871-29-7.31C-436.583,242.285-439.656,241.531-442.838,240.741Zm39.579,5.721c.025-.374.05-.615.057-.857.087-3.444,1.965-5.341,5.389-5.406,1.371-.026,2.746-.051,4.115.011a4.819,4.819,0,0,1,4.983,5.029c.018,1.1.27,1.289,1.315,1.022q20.732-5.3,41.485-10.518c.793-.2.985-.511.982-1.27-.026-6.858,0-13.717-.026-20.574a3.6,3.6,0,0,0-3.885-3.837q-46.959-.015-93.918,0A3.634,3.634,0,0,0-446.694,214c-.02,6.81.009,13.619-.028,20.428,0,.86.26,1.121,1.089,1.328,10.333,2.578,20.652,5.213,30.975,7.83C-410.877,244.547-407.094,245.5-403.259,246.462Zm7.387-56.935c-4.46,0-8.92-.017-13.379,0a8.825,8.825,0,0,0-9.2,9.135c-.011,1.421,0,2.842,0,4.264,0,3.082,0,3.029,3.057,3.035,1,0,1.093-.386,1.076-1.2-.045-2.106-.043-4.214-.007-6.321a4.608,4.608,0,0,1,4.572-4.775q13.82-.086,27.641,0a4.55,4.55,0,0,1,4.531,4.641c.034,1.519.009,3.038.009,4.558,0,3.176,0,3.147,3.145,3.086.766-.015,1.01-.2.99-.983-.052-2.057-.01-4.116-.019-6.174-.024-5.581-3.715-9.253-9.331-9.27C-387.148,189.517-391.51,189.527-395.872,189.528Zm-.1,16.408c4.409,0,8.817-.02,13.225.018.812.007,1.1-.193,1.073-1.045q-.091-2.936,0-5.876c.028-.947-.268-1.29-1.246-1.287q-13,.043-26.008,0c-1.076,0-1.337.415-1.306,1.395.058,1.81.081,3.627-.007,5.435-.052,1.064.195,1.415,1.341,1.394C-404.589,205.889-400.278,205.935-395.968,205.935Zm3.158,44.419c0-1.616-.017-3.231.007-4.847.013-.8-.345-1.182-1.131-1.183-1.322,0-2.644,0-3.966,0-.86,0-1.2.413-1.193,1.28.029,3.133.024,6.267,0,9.4-.005.858.32,1.268,1.207,1.249,1.273-.028,2.547-.041,3.819,0,.989.035,1.281-.45,1.264-1.346C-392.83,253.39-392.809,251.872-392.81,250.354Z" transform="translate(450.825 -185.35)"/></svg>