<svg xmlns="http://www.w3.org/2000/svg" width="84.519" height="106.461" viewBox="0 0 84.519 106.461"><defs><style>.a{fill:#fff;}</style></defs><g transform="translate(446.579 22.709)"><path class="a" d="M-350.853,305.837c.933.46.981,1.317.98,2.193q-.01,7.985-.024,15.97a7.983,7.983,0,0,0,4.556,7.711c4.891,2.5,11.138-.96,11.464-6.427.336-5.627.11-11.268.171-16.9.026-2.451.488-2.918,2.984-2.912,3.053.007,6.106,0,9.159.029,1.7.017,2.328.653,2.326,2.358-.009,5.871.048,11.744-.083,17.613-.238,10.634-9.107,20.127-19.724,21.251-.185.019-.4-.034-.467.225h-5.4c-.311-.454-.832-.334-1.253-.411a22.311,22.311,0,0,1-18.156-20.643c-.239-6.052-.076-12.12-.064-18.18,0-1.313.672-2.125,1.837-2.139,3.593-.043,7.187-.006,10.781,0Zm-9.739,15.929h.1c0,1.447-.095,2.9.016,4.339a18.545,18.545,0,0,0,16.688,16.888,18.861,18.861,0,0,0,20.025-13.709c1.008-3.821.571-7.7.7-11.561.022-.675-.458-.492-.8-.492-1.722,0-3.446.064-5.166.009-.773-.025-.89.255-.879.937.037,2.152.059,4.307-.008,6.458a12.087,12.087,0,0,1-11.463,11.737,11.967,11.967,0,0,1-12.379-12.208c-.029-2.27-.007-4.541.023-6.811.007-.526-.085-.767-.694-.753q-2.7.063-5.4,0c-.646-.014-.786.228-.771.817C-360.568,318.869-360.592,320.318-360.592,321.766Zm34.088-8.4v-.023c1.091,0,2.522.423,3.183-.111.766-.618.152-2.111.258-3.218,0-.038,0-.078,0-.117.055-.439-.105-.616-.577-.61-1.87.024-3.741.032-5.61,0-.536-.008-.618.193-.645.675-.191,3.408-.2,3.407,3.157,3.4Zm-30.658-.571v-.006c.936,0,1.872-.025,2.807.009.662.024.714-.4.627-.835-.172-.873.509-1.887-.43-2.625-.049-.038-.152-.007-.23-.007-1.832,0-3.665.015-5.5,0-.466,0-.668.1-.713.632-.239,2.839-.258,2.838,2.5,2.833Z" transform="translate(-62.396 -263.191)"/><path class="a" d="M-404.386,110.337q-7.224,0-14.447,0c-2.043,0-2.66-.618-2.673-2.654a24.944,24.944,0,0,1,.021-2.934c.134-1.189-.345-1.392-1.436-1.384-6.851.051-13.7.027-20.555.024-.43,0-.861-.006-1.289-.044a1.535,1.535,0,0,1-1.6-1.55c-.013-5.748-.632-11.541.294-17.23A14.3,14.3,0,0,1-432,72.749c2.769-.036,5.554-.267,8.3.406a14.335,14.335,0,0,1,9.409,6.986c.562.978.969,1.091,1.932.589a11.564,11.564,0,0,1,4.966-1.228c4.067-.151,8.155-.448,11.935,1.561.667.355.721-.209.9-.533A15,15,0,0,1-386.1,73.5a8.224,8.224,0,0,1,1.584-.411c3.972-.536,7.978-.832,11.877.269,6.464,1.825,10.487,7.457,10.557,14.542.043,4.345.017,8.692,0,13.038-.005,1.9-.554,2.448-2.452,2.451-7.165.009-14.33.021-21.495-.017-.944-.005-1.34.19-1.251,1.209.092,1.049.026,2.112.019,3.17-.012,2.031-.56,2.587-2.563,2.588Q-397.1,110.341-404.386,110.337Zm.027-3.812q6.168,0,12.335,0c.43,0,.955.193.946-.618-.046-4.189.107-8.387-.118-12.566a10.628,10.628,0,0,0-7.653-9.535,23.4,23.4,0,0,0-9.1-.376,10.686,10.686,0,0,0-9.526,9.37c-.51,4.362-.1,8.762-.2,13.143-.02.826.572.577.978.578C-412.583,106.53-408.471,106.525-404.359,106.525Zm27.831-6.982c3.248,0,6.5,0,9.743,0,.493,0,.88.056.871-.687-.049-4.03.064-8.064-.085-12.089a10.532,10.532,0,0,0-7.6-9.667,22.948,22.948,0,0,0-9.075-.409,10.816,10.816,0,0,0-8.8,6.2.933.933,0,0,0,.2,1.287,14.327,14.327,0,0,1,3.831,7.754,30.655,30.655,0,0,1,.18,4.92c.008,2.691,0,2.691,2.631,2.691Zm-55.514,0c3.211,0,6.422-.021,9.633.017.709.008.957-.158.919-.9-.063-1.25-.007-2.505-.019-3.759a14.673,14.673,0,0,1,4.17-10.747.9.9,0,0,0,.209-1.214,10.533,10.533,0,0,0-4.243-4.732c-4.093-2.376-8.58-2.143-12.9-1.217-5.249,1.126-8.239,5.293-8.308,10.647-.047,3.68.016,7.362-.031,11.043-.01.772.252.883.932.876C-438.464,99.524-435.253,99.543-432.042,99.543Z" transform="translate(0 -76.26)"/><path class="a" d="M-304.7,5.324a10.75,10.75,0,0,1,10.8,10.693A10.7,10.7,0,0,1-304.7,26.827,10.774,10.774,0,0,1-315.45,16.084,10.81,10.81,0,0,1-304.7,5.324Zm6.957,10.765a6.925,6.925,0,0,0-6.911-6.937A6.924,6.924,0,0,0-311.545,16a7,7,0,0,0,7.1,7.016A6.948,6.948,0,0,0-297.747,16.089Z" transform="translate(-99.63 -21.299)"/><path class="a" d="M-189.268-11.97A10.607,10.607,0,0,1-200.025-1.4a10.672,10.672,0,0,1-10.625-10.724,10.767,10.767,0,0,1,10.777-10.584A10.713,10.713,0,0,1-189.268-11.97Zm-10.477,6.726a6.763,6.763,0,0,0,6.67-6.879,6.988,6.988,0,0,0-7-6.757,6.861,6.861,0,0,0-6.706,7A6.8,6.8,0,0,0-199.745-5.245Z" transform="translate(-179.256 0)"/><path class="a" d="M-408.77-22.7a10.574,10.574,0,0,1,10.544,10.779A10.505,10.505,0,0,1-409.02-1.4a10.635,10.635,0,0,1-10.629-10.691A10.785,10.785,0,0,1-408.77-22.7Zm-.323,17.456a6.842,6.842,0,0,0,7.043-6.672,6.865,6.865,0,0,0-6.759-6.96,6.876,6.876,0,0,0-6.976,6.629A6.8,6.8,0,0,0-409.093-5.249Z" transform="translate(-20.458 -0.001)"/><path class="a" d="M-313.272,279.006l-.92-.267c-1.2-2.509-1.2-2.509,1.034-4.745,1.023-1.022,2.029-2.062,3.073-3.062,1-.956,2.1-1.024,2.909-.236a1.941,1.941,0,0,1-.157,2.906c-1.411,1.462-2.9,2.853-4.288,4.333C-312.1,278.449-312.913,278.365-313.272,279.006Z" transform="translate(-99.977 -231.254)"/><path class="a" d="M-249.763,273.384a2.041,2.041,0,0,1-1.311-.74c-1.442-1.427-2.893-2.846-4.3-4.3a1.98,1.98,0,0,1-.17-2.914,1.9,1.9,0,0,1,2.822.146c1.547,1.487,3.055,3.014,4.549,4.555a1.792,1.792,0,0,1,.4,2.148A1.933,1.933,0,0,1-249.763,273.384Z" transform="translate(-144.717 -227.055)"/><path class="a" d="M-387.136,265.046a2.442,2.442,0,0,1,1.5.7c1.47,1.463,2.954,2.913,4.394,4.4a1.9,1.9,0,0,1,.2,2.824,1.959,1.959,0,0,1-2.916-.13c-1.518-1.469-3.005-2.972-4.477-4.488a1.857,1.857,0,0,1-.361-2.26A1.964,1.964,0,0,1-387.136,265.046Z" transform="translate(-43.726 -227.194)"/><path class="a" d="M-183.074,275.931a1.975,1.975,0,0,1-1.8-.933,1.608,1.608,0,0,1,.038-1.977,43.172,43.172,0,0,1,5.309-5.289,1.65,1.65,0,0,1,2.331.273,1.629,1.629,0,0,1,.235,2.245,46.1,46.1,0,0,1-5.37,5.393A2.137,2.137,0,0,1-183.074,275.931Z" transform="translate(-198.601 -229.028)"/><path class="a" d="M-344.885,249.884c0-1.015-.019-2.031,0-3.045a1.928,1.928,0,0,1,1.864-2.115,1.9,1.9,0,0,1,1.924,2.053c.026,2.147.025,4.3-.018,6.442a1.894,1.894,0,0,1-1.979,2,1.9,1.9,0,0,1-1.8-2.055c-.031-1.092-.007-2.186-.007-3.279Z" transform="translate(-77.25 -211.292)"/><path class="a" d="M-208.894,249.8c0,1.093.039,2.187-.011,3.278a1.8,1.8,0,0,1-1.827,1.875,1.806,1.806,0,0,1-1.957-1.874q-.077-3.218,0-6.44a1.9,1.9,0,0,1,1.918-1.955,1.864,1.864,0,0,1,1.892,1.955c.036.544.008,1.092.008,1.639q0,.761,0,1.522Z" transform="translate(-177.679 -211.247)"/></g></svg>